<mxfile host="Electron" agent="Mozilla/5.0 (Macintosh; Intel Mac OS X 10_15_7) AppleWebKit/537.36 (KHTML, like Gecko) draw.io/24.7.17 Chrome/128.0.6613.36 Electron/32.0.1 Safari/537.36" version="24.7.17" pages="5">
  <diagram name="PreCI" id="-k0oxjlfY8eCICVIQoH1">
    <mxGraphModel dx="1244" dy="894" grid="1" gridSize="10" guides="1" tooltips="1" connect="1" arrows="1" fold="1" page="1" pageScale="1" pageWidth="1169" pageHeight="827" math="0" shadow="0">
      <root>
        <mxCell id="0" />
        <mxCell id="1" parent="0" />
        <mxCell id="DP2jiTC7STrJ-itq0Lv6-23" value="" style="rounded=0;whiteSpace=wrap;html=1;fillColor=none;" parent="1" vertex="1">
          <mxGeometry x="90" y="410" width="1020" height="250" as="geometry" />
        </mxCell>
        <mxCell id="yQyS5cBXcZY2YD3Enegk-13" style="edgeStyle=orthogonalEdgeStyle;rounded=0;orthogonalLoop=1;jettySize=auto;html=1;entryX=0;entryY=0.5;entryDx=0;entryDy=0;" parent="1" source="yQyS5cBXcZY2YD3Enegk-2" target="yQyS5cBXcZY2YD3Enegk-12" edge="1">
          <mxGeometry relative="1" as="geometry" />
        </mxCell>
        <mxCell id="yQyS5cBXcZY2YD3Enegk-14" value="git commit" style="edgeLabel;html=1;align=center;verticalAlign=middle;resizable=0;points=[];" parent="yQyS5cBXcZY2YD3Enegk-13" vertex="1" connectable="0">
          <mxGeometry x="0.0019" y="1" relative="1" as="geometry">
            <mxPoint as="offset" />
          </mxGeometry>
        </mxCell>
        <mxCell id="yQyS5cBXcZY2YD3Enegk-2" value="Source Code" style="sketch=0;outlineConnect=0;fontColor=#232F3E;gradientColor=none;fillColor=#232F3D;strokeColor=none;dashed=0;verticalLabelPosition=bottom;verticalAlign=top;align=center;html=1;fontSize=12;fontStyle=0;aspect=fixed;pointerEvents=1;shape=mxgraph.aws4.source_code;" parent="1" vertex="1">
          <mxGeometry x="200" y="55.44" width="57" height="78" as="geometry" />
        </mxCell>
        <mxCell id="yQyS5cBXcZY2YD3Enegk-8" style="edgeStyle=orthogonalEdgeStyle;rounded=0;orthogonalLoop=1;jettySize=auto;html=1;" parent="1" source="yQyS5cBXcZY2YD3Enegk-7" target="yQyS5cBXcZY2YD3Enegk-2" edge="1">
          <mxGeometry relative="1" as="geometry" />
        </mxCell>
        <mxCell id="yQyS5cBXcZY2YD3Enegk-7" value="Developer" style="sketch=0;outlineConnect=0;fontColor=#232F3E;gradientColor=none;fillColor=#232F3D;strokeColor=none;dashed=0;verticalLabelPosition=bottom;verticalAlign=top;align=center;html=1;fontSize=12;fontStyle=0;aspect=fixed;pointerEvents=1;shape=mxgraph.aws4.user;" parent="1" vertex="1">
          <mxGeometry x="80" y="55.44" width="78" height="78" as="geometry" />
        </mxCell>
        <mxCell id="DP2jiTC7STrJ-itq0Lv6-9" style="edgeStyle=orthogonalEdgeStyle;rounded=0;orthogonalLoop=1;jettySize=auto;html=1;entryX=0.887;entryY=0.38;entryDx=0;entryDy=0;entryPerimeter=0;" parent="1" source="yQyS5cBXcZY2YD3Enegk-11" target="yQyS5cBXcZY2YD3Enegk-22" edge="1">
          <mxGeometry relative="1" as="geometry">
            <Array as="points">
              <mxPoint x="792" y="215" />
              <mxPoint x="501" y="215" />
            </Array>
          </mxGeometry>
        </mxCell>
        <mxCell id="yQyS5cBXcZY2YD3Enegk-11" value="&lt;div&gt;&lt;span style=&quot;background-color: initial;&quot;&gt;feature&amp;nbsp;&lt;/span&gt;&lt;br&gt;&lt;/div&gt;&lt;div&gt;branch&lt;/div&gt;" style="verticalLabelPosition=bottom;html=1;verticalAlign=top;align=center;strokeColor=none;fillColor=#0000FF;shape=mxgraph.azure.git_repository;fontStyle=1" parent="1" vertex="1">
          <mxGeometry x="760" y="62.44" width="64" height="64" as="geometry" />
        </mxCell>
        <mxCell id="yQyS5cBXcZY2YD3Enegk-28" style="edgeStyle=orthogonalEdgeStyle;rounded=0;orthogonalLoop=1;jettySize=auto;html=1;entryX=0;entryY=0.5;entryDx=0;entryDy=0;" parent="1" source="yQyS5cBXcZY2YD3Enegk-12" target="yQyS5cBXcZY2YD3Enegk-16" edge="1">
          <mxGeometry relative="1" as="geometry" />
        </mxCell>
        <mxCell id="yQyS5cBXcZY2YD3Enegk-29" value="git push" style="edgeLabel;html=1;align=center;verticalAlign=middle;resizable=0;points=[];" parent="yQyS5cBXcZY2YD3Enegk-28" vertex="1" connectable="0">
          <mxGeometry x="-0.0583" y="-1" relative="1" as="geometry">
            <mxPoint as="offset" />
          </mxGeometry>
        </mxCell>
        <mxCell id="yQyS5cBXcZY2YD3Enegk-12" value="Pre-commit&amp;nbsp;&lt;div&gt;hook&lt;/div&gt;" style="rounded=1;whiteSpace=wrap;html=1;fillColor=#ffe6cc;strokeColor=#d79b00;fontStyle=1" parent="1" vertex="1">
          <mxGeometry x="363" y="69.44" width="90" height="50" as="geometry" />
        </mxCell>
        <mxCell id="yQyS5cBXcZY2YD3Enegk-16" value="Pre-Push&amp;nbsp;&lt;div&gt;hook&lt;/div&gt;" style="rounded=1;whiteSpace=wrap;html=1;fillColor=#fff2cc;strokeColor=#d6b656;fontStyle=1" parent="1" vertex="1">
          <mxGeometry x="550" y="69.44" width="90" height="50" as="geometry" />
        </mxCell>
        <mxCell id="DP2jiTC7STrJ-itq0Lv6-10" style="edgeStyle=orthogonalEdgeStyle;rounded=0;orthogonalLoop=1;jettySize=auto;html=1;" parent="1" source="yQyS5cBXcZY2YD3Enegk-22" target="DP2jiTC7STrJ-itq0Lv6-8" edge="1">
          <mxGeometry relative="1" as="geometry" />
        </mxCell>
        <mxCell id="yQyS5cBXcZY2YD3Enegk-22" value="Pull Request&#xa;(PR)" style="shape=image;verticalLabelPosition=bottom;labelBackgroundColor=default;verticalAlign=top;aspect=fixed;imageAspect=0;image=https://upload.wikimedia.org/wikipedia/commons/thumb/8/87/Octicons-git-pull-request.svg/800px-Octicons-git-pull-request.svg.png;fontStyle=1" parent="1" vertex="1">
          <mxGeometry x="408.01" y="192.44" width="44.99" height="60" as="geometry" />
        </mxCell>
        <mxCell id="yQyS5cBXcZY2YD3Enegk-24" value="&lt;div&gt;main&lt;/div&gt;&lt;div&gt;branch&lt;/div&gt;&lt;div&gt;&lt;br&gt;&lt;/div&gt;" style="verticalLabelPosition=bottom;html=1;verticalAlign=top;align=center;strokeColor=none;fillColor=#CC0000;shape=mxgraph.azure.git_repository;" parent="1" vertex="1">
          <mxGeometry x="424" y="699" width="64" height="64" as="geometry" />
        </mxCell>
        <mxCell id="yQyS5cBXcZY2YD3Enegk-30" value="push&amp;nbsp;&lt;div&gt;to remote&lt;/div&gt;" style="edgeStyle=orthogonalEdgeStyle;rounded=0;orthogonalLoop=1;jettySize=auto;html=1;entryX=0;entryY=0.5;entryDx=0;entryDy=0;entryPerimeter=0;" parent="1" source="yQyS5cBXcZY2YD3Enegk-16" target="yQyS5cBXcZY2YD3Enegk-11" edge="1">
          <mxGeometry relative="1" as="geometry" />
        </mxCell>
        <mxCell id="yQyS5cBXcZY2YD3Enegk-39" style="edgeStyle=orthogonalEdgeStyle;rounded=0;orthogonalLoop=1;jettySize=auto;html=1;exitX=1;exitY=0.5;exitDx=0;exitDy=0;" parent="1" source="p2KLFb130XRip5WQmHqW-1" target="yQyS5cBXcZY2YD3Enegk-38" edge="1">
          <mxGeometry relative="1" as="geometry">
            <mxPoint x="630.56" y="471" as="sourcePoint" />
          </mxGeometry>
        </mxCell>
        <mxCell id="yQyS5cBXcZY2YD3Enegk-40" value="&lt;span style=&quot;font-size: 12px; text-wrap: wrap; background-color: rgb(251, 251, 251);&quot;&gt;Secret Scanning&lt;/span&gt;" style="edgeLabel;html=1;align=center;verticalAlign=middle;resizable=0;points=[];fontColor=#CC0000;" parent="yQyS5cBXcZY2YD3Enegk-39" vertex="1" connectable="0">
          <mxGeometry x="-0.087" y="2" relative="1" as="geometry">
            <mxPoint x="4" y="2" as="offset" />
          </mxGeometry>
        </mxCell>
        <mxCell id="DP2jiTC7STrJ-itq0Lv6-13" style="edgeStyle=orthogonalEdgeStyle;rounded=0;orthogonalLoop=1;jettySize=auto;html=1;" parent="1" source="yQyS5cBXcZY2YD3Enegk-38" target="yQyS5cBXcZY2YD3Enegk-49" edge="1">
          <mxGeometry relative="1" as="geometry" />
        </mxCell>
        <mxCell id="DP2jiTC7STrJ-itq0Lv6-14" value="&lt;span style=&quot;color: rgb(204, 0, 0);&quot;&gt;Vulnerability Scans&lt;/span&gt;" style="edgeLabel;html=1;align=center;verticalAlign=middle;resizable=0;points=[];" parent="DP2jiTC7STrJ-itq0Lv6-13" vertex="1" connectable="0">
          <mxGeometry x="0.0433" y="1" relative="1" as="geometry">
            <mxPoint x="-1" as="offset" />
          </mxGeometry>
        </mxCell>
        <mxCell id="yQyS5cBXcZY2YD3Enegk-38" value="GitLeaks" style="shape=image;verticalLabelPosition=bottom;labelBackgroundColor=default;verticalAlign=top;aspect=fixed;imageAspect=0;image=https://gitleaks.io/logo.png;" parent="1" vertex="1">
          <mxGeometry x="790.56" y="440" width="69" height="62.07" as="geometry" />
        </mxCell>
        <mxCell id="yQyS5cBXcZY2YD3Enegk-55" style="edgeStyle=orthogonalEdgeStyle;rounded=0;orthogonalLoop=1;jettySize=auto;html=1;exitX=0.5;exitY=1;exitDx=0;exitDy=0;entryX=1;entryY=0.5;entryDx=0;entryDy=0;" parent="1" source="yQyS5cBXcZY2YD3Enegk-49" target="yQyS5cBXcZY2YD3Enegk-57" edge="1">
          <mxGeometry relative="1" as="geometry">
            <mxPoint x="563.4849999999999" y="654.84" as="targetPoint" />
            <mxPoint x="1067.49" y="499.84" as="sourcePoint" />
            <Array as="points">
              <mxPoint x="1040" y="496" />
              <mxPoint x="1040" y="574" />
            </Array>
          </mxGeometry>
        </mxCell>
        <mxCell id="yQyS5cBXcZY2YD3Enegk-49" value="Snyk" style="shape=image;verticalLabelPosition=bottom;labelBackgroundColor=default;verticalAlign=top;aspect=fixed;imageAspect=0;image=https://cdn.prod.website-files.com/5f10ed4c0ebf7221fb5661a5/6467f02539eb0ae4c8384105_Snyk.png;" parent="1" vertex="1">
          <mxGeometry x="1000.56" y="446.03000000000003" width="88.01" height="50" as="geometry" />
        </mxCell>
        <mxCell id="DP2jiTC7STrJ-itq0Lv6-16" style="edgeStyle=orthogonalEdgeStyle;rounded=0;orthogonalLoop=1;jettySize=auto;html=1;" parent="1" source="yQyS5cBXcZY2YD3Enegk-57" target="DP2jiTC7STrJ-itq0Lv6-15" edge="1">
          <mxGeometry relative="1" as="geometry" />
        </mxCell>
        <mxCell id="yQyS5cBXcZY2YD3Enegk-57" value="&lt;span style=&quot;&quot;&gt;Auto build&lt;/span&gt;" style="image;aspect=fixed;perimeter=ellipsePerimeter;html=1;align=center;shadow=0;dashed=0;fontColor=#142438;labelBackgroundColor=default;fontSize=12;spacingTop=3;image=img/lib/ibm/devops/build_test.svg;" parent="1" vertex="1">
          <mxGeometry x="729.9950000000001" y="544.44" width="60" height="60" as="geometry" />
        </mxCell>
        <mxCell id="yQyS5cBXcZY2YD3Enegk-68" style="edgeStyle=orthogonalEdgeStyle;rounded=0;orthogonalLoop=1;jettySize=auto;html=1;" parent="1" source="yQyS5cBXcZY2YD3Enegk-66" target="yQyS5cBXcZY2YD3Enegk-24" edge="1">
          <mxGeometry relative="1" as="geometry" />
        </mxCell>
        <mxCell id="yQyS5cBXcZY2YD3Enegk-71" value="Merge" style="edgeLabel;html=1;align=center;verticalAlign=middle;resizable=0;points=[];" parent="yQyS5cBXcZY2YD3Enegk-68" vertex="1" connectable="0">
          <mxGeometry x="-0.1455" y="-1" relative="1" as="geometry">
            <mxPoint as="offset" />
          </mxGeometry>
        </mxCell>
        <mxCell id="yQyS5cBXcZY2YD3Enegk-66" value="Approver" style="sketch=0;pointerEvents=1;shadow=0;dashed=0;html=1;strokeColor=none;fillColor=#505050;labelPosition=center;verticalLabelPosition=bottom;verticalAlign=top;outlineConnect=0;align=center;shape=mxgraph.office.users.approver;" parent="1" vertex="1">
          <mxGeometry x="250" y="703.5" width="59" height="55" as="geometry" />
        </mxCell>
        <mxCell id="ZX_YzBQMie0qy9G1Mtsc-1" style="edgeStyle=orthogonalEdgeStyle;rounded=0;orthogonalLoop=1;jettySize=auto;html=1;entryX=0;entryY=0.5;entryDx=0;entryDy=0;" parent="1" source="DP2jiTC7STrJ-itq0Lv6-8" target="OicyhBoVE_iCZVNI9Z5x-1" edge="1">
          <mxGeometry relative="1" as="geometry" />
        </mxCell>
        <mxCell id="DP2jiTC7STrJ-itq0Lv6-8" value="GitHub Actions workflow&#xa;on pull_request " style="shape=image;verticalLabelPosition=bottom;labelBackgroundColor=default;verticalAlign=top;aspect=fixed;imageAspect=0;image=https://cdn.prod.website-files.com/65264f6bf54e751c3a776db1/66d86964333d11e0a1f1da9e_github_actions.png;fontStyle=1" parent="1" vertex="1">
          <mxGeometry x="122" y="183.44" width="78" height="78" as="geometry" />
        </mxCell>
        <mxCell id="DP2jiTC7STrJ-itq0Lv6-17" style="edgeStyle=orthogonalEdgeStyle;rounded=0;orthogonalLoop=1;jettySize=auto;html=1;" parent="1" source="DP2jiTC7STrJ-itq0Lv6-18" target="yQyS5cBXcZY2YD3Enegk-66" edge="1">
          <mxGeometry relative="1" as="geometry" />
        </mxCell>
        <mxCell id="DP2jiTC7STrJ-itq0Lv6-15" value="Unit Test" style="shadow=0;dashed=0;html=1;strokeColor=none;fillColor=#4495D1;labelPosition=center;verticalLabelPosition=bottom;verticalAlign=top;align=center;outlineConnect=0;shape=mxgraph.veeam.automated_testing;" parent="1" vertex="1">
          <mxGeometry x="531.2" y="552.04" width="44.8" height="44.8" as="geometry" />
        </mxCell>
        <mxCell id="DP2jiTC7STrJ-itq0Lv6-19" value="" style="edgeStyle=orthogonalEdgeStyle;rounded=0;orthogonalLoop=1;jettySize=auto;html=1;" parent="1" source="DP2jiTC7STrJ-itq0Lv6-15" target="DP2jiTC7STrJ-itq0Lv6-18" edge="1">
          <mxGeometry relative="1" as="geometry">
            <mxPoint x="240" y="574.44" as="sourcePoint" />
            <mxPoint x="161" y="784.44" as="targetPoint" />
          </mxGeometry>
        </mxCell>
        <mxCell id="DP2jiTC7STrJ-itq0Lv6-18" value="Report" style="sketch=0;outlineConnect=0;fontColor=#232F3E;gradientColor=none;fillColor=#7AA116;strokeColor=none;dashed=0;verticalLabelPosition=bottom;verticalAlign=top;align=center;html=1;fontSize=12;fontStyle=0;aspect=fixed;pointerEvents=1;shape=mxgraph.aws4.backup_compliance_reporting;" parent="1" vertex="1">
          <mxGeometry x="360" y="535.44" width="64" height="78" as="geometry" />
        </mxCell>
        <mxCell id="DP2jiTC7STrJ-itq0Lv6-28" value="" style="rounded=0;whiteSpace=wrap;html=1;fillColor=none;" parent="1" vertex="1">
          <mxGeometry x="340" y="30" width="320" height="125.44" as="geometry" />
        </mxCell>
        <mxCell id="ZX_YzBQMie0qy9G1Mtsc-2" style="edgeStyle=orthogonalEdgeStyle;rounded=0;orthogonalLoop=1;jettySize=auto;html=1;entryX=0.5;entryY=0;entryDx=0;entryDy=0;exitX=0;exitY=0.5;exitDx=0;exitDy=0;" parent="1" source="OE7Bx2759FTxIu3JnBgk-7" target="OicyhBoVE_iCZVNI9Z5x-1" edge="1">
          <mxGeometry relative="1" as="geometry">
            <Array as="points">
              <mxPoint x="600" y="254" />
              <mxPoint x="600" y="360" />
              <mxPoint x="226" y="360" />
            </Array>
          </mxGeometry>
        </mxCell>
        <mxCell id="QW9D0piDy3JKAUEb54HW-1" value="AssumeRoleWithWebIdentity" style="edgeLabel;html=1;align=center;verticalAlign=middle;resizable=0;points=[];" vertex="1" connectable="0" parent="ZX_YzBQMie0qy9G1Mtsc-2">
          <mxGeometry x="-0.1827" y="-1" relative="1" as="geometry">
            <mxPoint as="offset" />
          </mxGeometry>
        </mxCell>
        <mxCell id="OE7Bx2759FTxIu3JnBgk-7" value="AWS Account" style="points=[[0,0],[0.25,0],[0.5,0],[0.75,0],[1,0],[1,0.25],[1,0.5],[1,0.75],[1,1],[0.75,1],[0.5,1],[0.25,1],[0,1],[0,0.75],[0,0.5],[0,0.25]];outlineConnect=0;gradientColor=none;html=1;whiteSpace=wrap;fontSize=12;fontStyle=0;container=1;pointerEvents=0;collapsible=0;recursiveResize=0;shape=mxgraph.aws4.group;grIcon=mxgraph.aws4.group_account;strokeColor=#CD2264;fillColor=none;verticalAlign=top;align=left;spacingLeft=30;fontColor=#CD2264;dashed=0;" parent="1" vertex="1">
          <mxGeometry x="859.56" y="140" width="250" height="228.00000000000003" as="geometry" />
        </mxCell>
        <mxCell id="OE7Bx2759FTxIu3JnBgk-8" style="edgeStyle=orthogonalEdgeStyle;rounded=0;orthogonalLoop=1;jettySize=auto;html=1;" parent="OE7Bx2759FTxIu3JnBgk-7" source="OE7Bx2759FTxIu3JnBgk-9" target="OE7Bx2759FTxIu3JnBgk-11" edge="1">
          <mxGeometry relative="1" as="geometry" />
        </mxCell>
        <mxCell id="OE7Bx2759FTxIu3JnBgk-9" value="secrets manager" style="sketch=0;points=[[0,0,0],[0.25,0,0],[0.5,0,0],[0.75,0,0],[1,0,0],[0,1,0],[0.25,1,0],[0.5,1,0],[0.75,1,0],[1,1,0],[0,0.25,0],[0,0.5,0],[0,0.75,0],[1,0.25,0],[1,0.5,0],[1,0.75,0]];outlineConnect=0;fontColor=#232F3E;fillColor=#DD344C;strokeColor=#ffffff;dashed=0;verticalLabelPosition=bottom;verticalAlign=top;align=center;html=1;fontSize=12;fontStyle=0;aspect=fixed;shape=mxgraph.aws4.resourceIcon;resIcon=mxgraph.aws4.secrets_manager;" parent="OE7Bx2759FTxIu3JnBgk-7" vertex="1">
          <mxGeometry x="160" y="130" width="50" height="50" as="geometry" />
        </mxCell>
        <mxCell id="OE7Bx2759FTxIu3JnBgk-10" value="IAM role" style="outlineConnect=0;dashed=0;verticalLabelPosition=bottom;verticalAlign=top;align=center;html=1;shape=mxgraph.aws3.role;fillColor=#759C3E;gradientColor=none;" parent="OE7Bx2759FTxIu3JnBgk-7" vertex="1">
          <mxGeometry x="30" y="65.25" width="70" height="54.75" as="geometry" />
        </mxCell>
        <mxCell id="OE7Bx2759FTxIu3JnBgk-11" value="kms" style="sketch=0;points=[[0,0,0],[0.25,0,0],[0.5,0,0],[0.75,0,0],[1,0,0],[0,1,0],[0.25,1,0],[0.5,1,0],[0.75,1,0],[1,1,0],[0,0.25,0],[0,0.5,0],[0,0.75,0],[1,0.25,0],[1,0.5,0],[1,0.75,0]];outlineConnect=0;fontColor=#232F3E;fillColor=#DD344C;strokeColor=#ffffff;dashed=0;verticalLabelPosition=bottom;verticalAlign=top;align=center;html=1;fontSize=12;fontStyle=0;aspect=fixed;shape=mxgraph.aws4.resourceIcon;resIcon=mxgraph.aws4.key_management_service;" parent="OE7Bx2759FTxIu3JnBgk-7" vertex="1">
          <mxGeometry x="160" y="20" width="50" height="50" as="geometry" />
        </mxCell>
        <mxCell id="OE7Bx2759FTxIu3JnBgk-12" style="edgeStyle=orthogonalEdgeStyle;rounded=0;orthogonalLoop=1;jettySize=auto;html=1;entryX=0;entryY=0.5;entryDx=0;entryDy=0;entryPerimeter=0;" parent="OE7Bx2759FTxIu3JnBgk-7" source="OE7Bx2759FTxIu3JnBgk-10" target="OE7Bx2759FTxIu3JnBgk-9" edge="1">
          <mxGeometry relative="1" as="geometry" />
        </mxCell>
        <mxCell id="Gwq8I47I3nBYAF0u8F-e-3" style="edgeStyle=orthogonalEdgeStyle;rounded=0;orthogonalLoop=1;jettySize=auto;html=1;entryX=0;entryY=0.5;entryDx=0;entryDy=0;" edge="1" parent="1" source="OicyhBoVE_iCZVNI9Z5x-1" target="p2KLFb130XRip5WQmHqW-1">
          <mxGeometry relative="1" as="geometry">
            <mxPoint x="440" y="474" as="targetPoint" />
          </mxGeometry>
        </mxCell>
        <mxCell id="Gwq8I47I3nBYAF0u8F-e-4" value="&lt;span style=&quot;text-wrap: wrap; color: rgb(204, 0, 0); font-size: 12px; background-color: rgb(251, 251, 251);&quot;&gt;Automated&lt;/span&gt;&lt;div style=&quot;text-wrap: wrap; color: rgb(204, 0, 0); font-size: 12px; background-color: rgb(251, 251, 251);&quot;&gt;Static Code&amp;nbsp;&lt;/div&gt;&lt;div style=&quot;text-wrap: wrap; color: rgb(204, 0, 0); font-size: 12px; background-color: rgb(251, 251, 251);&quot;&gt;Analysis&lt;/div&gt;" style="edgeLabel;html=1;align=center;verticalAlign=middle;resizable=0;points=[];" vertex="1" connectable="0" parent="Gwq8I47I3nBYAF0u8F-e-3">
          <mxGeometry x="-0.1592" relative="1" as="geometry">
            <mxPoint as="offset" />
          </mxGeometry>
        </mxCell>
        <mxCell id="OicyhBoVE_iCZVNI9Z5x-1" value="Get pipeline&lt;div&gt;credentials&lt;/div&gt;" style="rounded=1;whiteSpace=wrap;html=1;fontStyle=1;fillColor=#dae8fc;strokeColor=#6c8ebf;" parent="1" vertex="1">
          <mxGeometry x="186" y="444" width="80" height="60" as="geometry" />
        </mxCell>
        <mxCell id="p2KLFb130XRip5WQmHqW-1" value="" style="shape=image;verticalLabelPosition=bottom;labelBackgroundColor=default;verticalAlign=top;aspect=fixed;imageAspect=0;image=https://static-00.iconduck.com/assets.00/sonarqube-icon-2048x499-b6mw67zs.png;" vertex="1" parent="1">
          <mxGeometry x="470" y="449.03" width="180.82" height="44" as="geometry" />
        </mxCell>
      </root>
    </mxGraphModel>
  </diagram>
  <diagram id="j4iX-SS4qQuz5TVRVATf" name="CI">
    <mxGraphModel dx="1244" dy="894" grid="1" gridSize="10" guides="1" tooltips="1" connect="1" arrows="1" fold="1" page="1" pageScale="1" pageWidth="1169" pageHeight="827" math="0" shadow="0">
      <root>
        <mxCell id="0" />
        <mxCell id="1" parent="0" />
        <mxCell id="rHq_XIFmlFcPWwt6HyXX-2" style="edgeStyle=orthogonalEdgeStyle;rounded=0;orthogonalLoop=1;jettySize=auto;html=1;" parent="1" source="_gljD-yxNDS4w34Zq3Vv-1" target="rHq_XIFmlFcPWwt6HyXX-1" edge="1">
          <mxGeometry relative="1" as="geometry" />
        </mxCell>
        <mxCell id="WLHYhje5cx6KHig1gigW-1" value="on push" style="edgeLabel;html=1;align=center;verticalAlign=middle;resizable=0;points=[];" parent="rHq_XIFmlFcPWwt6HyXX-2" vertex="1" connectable="0">
          <mxGeometry x="0.0208" y="-4" relative="1" as="geometry">
            <mxPoint as="offset" />
          </mxGeometry>
        </mxCell>
        <mxCell id="_gljD-yxNDS4w34Zq3Vv-1" value="&lt;div&gt;main&lt;/div&gt;&lt;div&gt;branch&lt;/div&gt;&lt;div&gt;&lt;br&gt;&lt;/div&gt;" style="verticalLabelPosition=bottom;html=1;verticalAlign=top;align=center;strokeColor=none;fillColor=#CC0000;shape=mxgraph.azure.git_repository;" parent="1" vertex="1">
          <mxGeometry x="20" y="27" width="64" height="64" as="geometry" />
        </mxCell>
        <mxCell id="fY1YCJaybagAY9zyOnzN-9" style="edgeStyle=orthogonalEdgeStyle;rounded=0;orthogonalLoop=1;jettySize=auto;html=1;" parent="1" source="rHq_XIFmlFcPWwt6HyXX-1" target="Sk0my4I8i_VFIC7n81k0-1" edge="1">
          <mxGeometry relative="1" as="geometry">
            <Array as="points">
              <mxPoint x="219" y="200" />
              <mxPoint x="96" y="200" />
            </Array>
          </mxGeometry>
        </mxCell>
        <mxCell id="rHq_XIFmlFcPWwt6HyXX-1" value="GitHub Actions workflow&#xa;on push " style="shape=image;verticalLabelPosition=bottom;labelBackgroundColor=default;verticalAlign=top;aspect=fixed;imageAspect=0;image=https://cdn.prod.website-files.com/65264f6bf54e751c3a776db1/66d86964333d11e0a1f1da9e_github_actions.png;fontStyle=1" parent="1" vertex="1">
          <mxGeometry x="180" y="20" width="78" height="78" as="geometry" />
        </mxCell>
        <mxCell id="FLBkalhn9c48iVikGoNS-12" style="edgeStyle=orthogonalEdgeStyle;rounded=0;orthogonalLoop=1;jettySize=auto;html=1;exitX=1;exitY=0.5;exitDx=0;exitDy=0;entryX=0;entryY=0.5;entryDx=0;entryDy=0;" parent="1" source="fY1YCJaybagAY9zyOnzN-2" target="3B1uC-KXJTwkqsEbNb2T-1" edge="1">
          <mxGeometry relative="1" as="geometry">
            <mxPoint x="414.33000000000004" y="214.04" as="sourcePoint" />
            <mxPoint x="440" y="305" as="targetPoint" />
          </mxGeometry>
        </mxCell>
        <mxCell id="FLBkalhn9c48iVikGoNS-13" value="&lt;span style=&quot;text-wrap: wrap; color: rgb(204, 0, 0); font-size: 12px; background-color: rgb(251, 251, 251);&quot;&gt;Automated&lt;/span&gt;&lt;div style=&quot;text-wrap: wrap; color: rgb(204, 0, 0); font-size: 12px; background-color: rgb(251, 251, 251);&quot;&gt;Static Code&amp;nbsp;&lt;/div&gt;&lt;div style=&quot;text-wrap: wrap; color: rgb(204, 0, 0); font-size: 12px; background-color: rgb(251, 251, 251);&quot;&gt;Analysis&lt;/div&gt;" style="edgeLabel;html=1;align=center;verticalAlign=middle;resizable=0;points=[];" parent="FLBkalhn9c48iVikGoNS-12" vertex="1" connectable="0">
          <mxGeometry x="-0.2892" y="-2" relative="1" as="geometry">
            <mxPoint as="offset" />
          </mxGeometry>
        </mxCell>
        <mxCell id="fY1YCJaybagAY9zyOnzN-3" style="edgeStyle=orthogonalEdgeStyle;rounded=0;orthogonalLoop=1;jettySize=auto;html=1;" parent="1" source="Sk0my4I8i_VFIC7n81k0-1" target="fY1YCJaybagAY9zyOnzN-2" edge="1">
          <mxGeometry relative="1" as="geometry" />
        </mxCell>
        <mxCell id="Sk0my4I8i_VFIC7n81k0-1" value="Code Checkout" style="image;aspect=fixed;html=1;points=[];align=center;fontSize=12;image=img/lib/azure2/general/Builds.svg;" parent="1" vertex="1">
          <mxGeometry x="63.67" y="275" width="64" height="64" as="geometry" />
        </mxCell>
        <mxCell id="6WHlW8uWKeN7RfVU1bt4-2" style="edgeStyle=orthogonalEdgeStyle;rounded=0;orthogonalLoop=1;jettySize=auto;html=1;" parent="1" source="Sk0my4I8i_VFIC7n81k0-3" target="6WHlW8uWKeN7RfVU1bt4-1" edge="1">
          <mxGeometry relative="1" as="geometry" />
        </mxCell>
        <mxCell id="Sk0my4I8i_VFIC7n81k0-3" value="Build image" style="image;sketch=0;aspect=fixed;html=1;points=[];align=center;fontSize=12;image=img/lib/mscae/Docker.svg;" parent="1" vertex="1">
          <mxGeometry x="451.67" y="467.3399999999999" width="50" height="41" as="geometry" />
        </mxCell>
        <mxCell id="Sk0my4I8i_VFIC7n81k0-6" value="DAST" style="shape=image;verticalLabelPosition=bottom;labelBackgroundColor=default;verticalAlign=top;aspect=fixed;imageAspect=0;image=https://forwardsecurity.com/wp-content/uploads/2023/03/OWASP-ZAP-1.png;" parent="1" vertex="1">
          <mxGeometry x="701.67" y="454.89" width="65" height="65" as="geometry" />
        </mxCell>
        <mxCell id="6WHlW8uWKeN7RfVU1bt4-15" style="edgeStyle=orthogonalEdgeStyle;rounded=0;orthogonalLoop=1;jettySize=auto;html=1;" parent="1" source="6WHlW8uWKeN7RfVU1bt4-1" target="Sk0my4I8i_VFIC7n81k0-6" edge="1">
          <mxGeometry relative="1" as="geometry" />
        </mxCell>
        <mxCell id="6WHlW8uWKeN7RfVU1bt4-1" value="Trivy Image scan" style="shape=image;verticalLabelPosition=bottom;labelBackgroundColor=default;verticalAlign=top;aspect=fixed;imageAspect=0;image=https://aquasecurity.github.io/trivy/v0.22.0/imgs/logo.png;" parent="1" vertex="1">
          <mxGeometry x="556.67" y="438" width="95" height="99.68" as="geometry" />
        </mxCell>
        <mxCell id="6WHlW8uWKeN7RfVU1bt4-9" style="edgeStyle=orthogonalEdgeStyle;rounded=0;orthogonalLoop=1;jettySize=auto;html=1;" parent="1" source="6WHlW8uWKeN7RfVU1bt4-3" target="6WHlW8uWKeN7RfVU1bt4-8" edge="1">
          <mxGeometry relative="1" as="geometry" />
        </mxCell>
        <mxCell id="6WHlW8uWKeN7RfVU1bt4-3" value="IaC Scan" style="shape=image;verticalLabelPosition=bottom;labelBackgroundColor=default;verticalAlign=top;aspect=fixed;imageAspect=0;image=https://raw.githubusercontent.com/bridgecrewio/checkov/main/docs/web/images/checkov_blue_logo.png;" parent="1" vertex="1">
          <mxGeometry x="32.999999999999986" y="475.29999999999995" width="125.35" height="25.09" as="geometry" />
        </mxCell>
        <mxCell id="6WHlW8uWKeN7RfVU1bt4-12" style="edgeStyle=orthogonalEdgeStyle;rounded=0;orthogonalLoop=1;jettySize=auto;html=1;entryX=0;entryY=0.5;entryDx=0;entryDy=0;" parent="1" source="6WHlW8uWKeN7RfVU1bt4-8" target="6WHlW8uWKeN7RfVU1bt4-11" edge="1">
          <mxGeometry relative="1" as="geometry" />
        </mxCell>
        <mxCell id="6WHlW8uWKeN7RfVU1bt4-8" value="Syft/Trivy&lt;div&gt;Generete&lt;div&gt;SBOM&lt;/div&gt;&lt;/div&gt;" style="rounded=1;whiteSpace=wrap;html=1;fontStyle=1" parent="1" vertex="1">
          <mxGeometry x="206.67000000000002" y="457.89" width="80" height="60" as="geometry" />
        </mxCell>
        <mxCell id="6WHlW8uWKeN7RfVU1bt4-13" style="edgeStyle=orthogonalEdgeStyle;rounded=0;orthogonalLoop=1;jettySize=auto;html=1;" parent="1" source="6WHlW8uWKeN7RfVU1bt4-11" target="Sk0my4I8i_VFIC7n81k0-3" edge="1">
          <mxGeometry relative="1" as="geometry" />
        </mxCell>
        <mxCell id="6WHlW8uWKeN7RfVU1bt4-11" value="Grype&lt;br&gt;Analyze&lt;div&gt;SBOM&lt;/div&gt;" style="rounded=1;whiteSpace=wrap;html=1;fontStyle=1" parent="1" vertex="1">
          <mxGeometry x="326.67" y="457.89" width="80" height="60" as="geometry" />
        </mxCell>
        <mxCell id="Gqd14W3-ECIcyz9NjLz_-1" value="Container Registry" style="image;aspect=fixed;html=1;points=[];align=center;fontSize=12;image=img/lib/azure2/containers/Container_Registries.svg;" parent="1" vertex="1">
          <mxGeometry x="868.4" y="650" width="68" height="61" as="geometry" />
        </mxCell>
        <mxCell id="FLBkalhn9c48iVikGoNS-1" style="edgeStyle=orthogonalEdgeStyle;rounded=0;orthogonalLoop=1;jettySize=auto;html=1;exitX=1;exitY=0.5;exitDx=0;exitDy=0;" parent="1" source="3B1uC-KXJTwkqsEbNb2T-1" target="FLBkalhn9c48iVikGoNS-6" edge="1">
          <mxGeometry relative="1" as="geometry">
            <mxPoint x="611.6700000000001" y="305" as="sourcePoint" />
          </mxGeometry>
        </mxCell>
        <mxCell id="FLBkalhn9c48iVikGoNS-2" value="&lt;span style=&quot;font-size: 12px; text-wrap: wrap; background-color: rgb(251, 251, 251);&quot;&gt;Secret Scanning&lt;/span&gt;" style="edgeLabel;html=1;align=center;verticalAlign=middle;resizable=0;points=[];fontColor=#CC0000;" parent="FLBkalhn9c48iVikGoNS-1" vertex="1" connectable="0">
          <mxGeometry x="-0.087" y="2" relative="1" as="geometry">
            <mxPoint x="4" y="2" as="offset" />
          </mxGeometry>
        </mxCell>
        <mxCell id="FLBkalhn9c48iVikGoNS-4" style="edgeStyle=orthogonalEdgeStyle;rounded=0;orthogonalLoop=1;jettySize=auto;html=1;" parent="1" source="FLBkalhn9c48iVikGoNS-6" target="FLBkalhn9c48iVikGoNS-7" edge="1">
          <mxGeometry relative="1" as="geometry" />
        </mxCell>
        <mxCell id="FLBkalhn9c48iVikGoNS-5" value="&lt;span style=&quot;color: rgb(204, 0, 0);&quot;&gt;Vulnerability Scans&lt;/span&gt;" style="edgeLabel;html=1;align=center;verticalAlign=middle;resizable=0;points=[];" parent="FLBkalhn9c48iVikGoNS-4" vertex="1" connectable="0">
          <mxGeometry x="0.0433" y="1" relative="1" as="geometry">
            <mxPoint x="-1" as="offset" />
          </mxGeometry>
        </mxCell>
        <mxCell id="FLBkalhn9c48iVikGoNS-6" value="GitLeaks" style="shape=image;verticalLabelPosition=bottom;labelBackgroundColor=default;verticalAlign=top;aspect=fixed;imageAspect=0;image=https://gitleaks.io/logo.png;" parent="1" vertex="1">
          <mxGeometry x="788.33" y="273.97" width="69" height="62.07" as="geometry" />
        </mxCell>
        <mxCell id="3QSyUmc7ftAiptQsxzFT-1" style="edgeStyle=orthogonalEdgeStyle;rounded=0;orthogonalLoop=1;jettySize=auto;html=1;entryX=0.5;entryY=0;entryDx=0;entryDy=0;" parent="1" source="FLBkalhn9c48iVikGoNS-7" edge="1">
          <mxGeometry relative="1" as="geometry">
            <Array as="points">
              <mxPoint x="1042.33" y="392.04" />
              <mxPoint x="275.33000000000004" y="392.04" />
            </Array>
            <mxPoint x="275.005" y="467.34" as="targetPoint" />
          </mxGeometry>
        </mxCell>
        <mxCell id="FLBkalhn9c48iVikGoNS-7" value="Snyk" style="shape=image;verticalLabelPosition=bottom;labelBackgroundColor=default;verticalAlign=top;aspect=fixed;imageAspect=0;image=https://cdn.prod.website-files.com/5f10ed4c0ebf7221fb5661a5/6467f02539eb0ae4c8384105_Snyk.png;" parent="1" vertex="1">
          <mxGeometry x="998.33" y="280.00000000000006" width="88.01" height="50" as="geometry" />
        </mxCell>
        <mxCell id="JK7YFxVibYTY0rTPsKsH-2" value="" style="edgeStyle=orthogonalEdgeStyle;rounded=0;orthogonalLoop=1;jettySize=auto;html=1;" parent="1" source="Sk0my4I8i_VFIC7n81k0-6" target="JK7YFxVibYTY0rTPsKsH-1" edge="1">
          <mxGeometry relative="1" as="geometry">
            <Array as="points" />
            <mxPoint x="767" y="487" as="sourcePoint" />
            <mxPoint x="846" y="688" as="targetPoint" />
          </mxGeometry>
        </mxCell>
        <mxCell id="JK7YFxVibYTY0rTPsKsH-3" value="push" style="edgeLabel;html=1;align=center;verticalAlign=middle;resizable=0;points=[];" parent="JK7YFxVibYTY0rTPsKsH-2" vertex="1" connectable="0">
          <mxGeometry x="-0.1304" y="-4" relative="1" as="geometry">
            <mxPoint as="offset" />
          </mxGeometry>
        </mxCell>
        <mxCell id="E1FX8N6gV22873NUNVKT-4" style="edgeStyle=orthogonalEdgeStyle;rounded=0;orthogonalLoop=1;jettySize=auto;html=1;entryX=0;entryY=0.5;entryDx=0;entryDy=0;" parent="1" source="JK7YFxVibYTY0rTPsKsH-1" target="E1FX8N6gV22873NUNVKT-3" edge="1">
          <mxGeometry relative="1" as="geometry" />
        </mxCell>
        <mxCell id="E1FX8N6gV22873NUNVKT-7" value="push" style="edgeLabel;html=1;align=center;verticalAlign=middle;resizable=0;points=[];" parent="E1FX8N6gV22873NUNVKT-4" vertex="1" connectable="0">
          <mxGeometry x="-0.1502" y="-2" relative="1" as="geometry">
            <mxPoint as="offset" />
          </mxGeometry>
        </mxCell>
        <mxCell id="JK7YFxVibYTY0rTPsKsH-1" value="Integration or&lt;br&gt;&lt;span style=&quot;text-wrap: wrap;&quot;&gt;Regression&lt;/span&gt;&lt;span style=&quot;background-color: initial;&quot;&gt;&amp;nbsp;&lt;/span&gt;&lt;div&gt;&lt;div&gt;Tests&lt;/div&gt;&lt;/div&gt;" style="shadow=0;dashed=0;html=1;strokeColor=none;fillColor=#4495D1;labelPosition=center;verticalLabelPosition=bottom;verticalAlign=top;align=center;outlineConnect=0;shape=mxgraph.veeam.automated_testing;fontStyle=0" parent="1" vertex="1">
          <mxGeometry x="880" y="465.49000000000007" width="44.8" height="44.8" as="geometry" />
        </mxCell>
        <mxCell id="E1FX8N6gV22873NUNVKT-3" value="&lt;font color=&quot;#000000&quot;&gt;Artifact&lt;br&gt;Registry&lt;/font&gt;" style="sketch=0;html=1;verticalAlign=top;labelPosition=center;verticalLabelPosition=bottom;align=center;spacingTop=-6;fontSize=11;fontStyle=1;fontColor=#999999;shape=image;aspect=fixed;imageAspect=0;image=data:image/svg+xml,PHN2ZyB4bWxucz0iaHR0cDovL3d3dy53My5vcmcvMjAwMC9zdmciIGlkPSJzdmc4MjciIHZlcnNpb249IjEuMSIgdmlld0JveD0iMCAwIDIwNS41MTIyOCAxODAuNTE4MjUiIGhlaWdodD0iMTgwLjUxODI1bW0iIHdpZHRoPSIyMDUuNTEyMjhtbSI+JiN4YTsgICYjeGE7ICA8ZGVmcyBpZD0iZGVmczgyNCIvPiYjeGE7ICA8ZyB0cmFuc2Zvcm09InRyYW5zbGF0ZSgtNC42MDIwNzI4LC01Ni43NjcxMjYpIiBpZD0ibGF5ZXIxIj4mI3hhOyAgICA8cGF0aCBkPSJtIDE0Mi4zMDMzMiwyMDIuNTM2NzUgMjYuNjMwNzgsLTE0Ljc0MDkzIHYgLTI5LjExOTQ4IGwgLTI2LjYzMDc4LDE0Ljg2ODYzIHogbSAtNC44MzQ4OSwwIC0yNi42MzA3OCwtMTQuNzQwOTMgdiAtMjkuMTE5NDggbCAyNi42MzA3OCwxNC44Njg2MyB6IG0gLTI3LjM3NTc4LC01My4zNDI2NCAyNi42MzA3NywtMTQuNzQwOTMgViAxMDUuMzMzNyBsIC0yNi42MzA3NywxNC44Njg2MyB6IG0gLTQuODM0OSwwIC0yNi42MzA3NzcsLTE0Ljc0MDkzIFYgMTA1LjMzMzcgbCAyNi42MzA3NzcsMTQuODY4NjMgeiBtIC0yNy4zNzU3ODgsNTMuMzQyNjQgMjYuNjMwNzc4LC0xNC43NDA5MyB2IC0yOS4xMTk0OCBsIC0yNi42MzA3NzgsMTQuODY4NjMgeiBtIC00LjgzNDg5MywwIC0yNi42MzA3NzksLTE0Ljc0MDkzIHYgLTI5LjExOTQ4IGwgMjYuNjMwNzc5LDE0Ljg2ODYzIHogTSAyMTAuMTE0MzYsMTg1LjQ1NzQzIFYgMTA4LjU1NzM1IEwgMTg5LjY4MTczLDk2LjcxMDk4MSBWIDE5Ny4zMjgwMiBaIG0gLTIwNS41MTIyODcyLDAgViAxMDguNTU3MzUgTCAyNS4wMzQ2OTYsOTYuNzEwOTgxIFYgMTk3LjMyODAyIFoiIHN0eWxlPSJvcGFjaXR5OjE7ZmlsbDojMzM2N2Q2O2ZpbGwtb3BhY2l0eToxO3N0cm9rZTpub25lO3N0cm9rZS13aWR0aDowLjI2NDU4M3B4O3N0cm9rZS1saW5lY2FwOmJ1dHQ7c3Ryb2tlLWxpbmVqb2luOm1pdGVyO3N0cm9rZS1vcGFjaXR5OjEiIGlkPSJwYXRoOTY3LTAtNiIvPiYjeGE7ICAgIDxwYXRoIGQ9Im0gMTM5Ljc5MjI1LDE2OC4yODM3OSAtMjYuMDI5NjQsLTE0LjUxMjkzIDI2LjAyOTY0LC0xNC40MTkzIDI2LjIxNjg5LDE0LjQxOTMgeiBNIDEwNy41ODE1NywxMTQuOTQxMTUgODEuNTUxOTM0LDEwMC40MjgyMiAxMDcuNTgxNTcsODYuMDA4OTE4IDEzMy43OTg0NiwxMDAuNDI4MjIgWiBtIC0zMi4yMTA2ODUsNTMuMzQyNjQgLTI2LjAyOTYzNCwtMTQuNTEyOTMgMjYuMDI5NjM0LC0xNC40MTkzIDI2LjIxNjg5NSwxNC40MTkzIHogbSA4Ni43OTQ3MDUsNjkuMDAxNTkgNDcuOTQ4NzcsLTI3Ljc4NzQ2IHYgLTI0LjA0MDQ5IGwgLTQ3Ljk0ODc3LDI3Ljg1ODIyIHogTSAyMTAuMTE0MzYsODQuNTUyNTU3IDE2Mi4xNjU1OSw1Ni43NjcxMjYgdiAyMy45NjU5MjEgbCA0Ny45NDg3NywyNy44MjQzMDMgeiBNIDUyLjU1MDgzNSwyMzcuMjg1MzggNC42MDIwNzI4LDIwOS40OTc5MiBWIDE4NS40NTc0MyBMIDUyLjU1MDgzNSwyMTMuMzE1NjUgWiBNIDQuNjAyMDcyOCw4NC41NTI1NTcgNTIuNTUwODM1LDU2Ljc2NzEyNiBWIDgwLjczMzA0NyBMIDQuNjAyMDcyOCwxMDguNTU3MzUgWiIgc3R5bGU9Im9wYWNpdHk6MTtmaWxsOiM1Yzg1ZGU7ZmlsbC1vcGFjaXR5OjE7c3Ryb2tlOm5vbmU7c3Ryb2tlLXdpZHRoOjAuMjY0NTgzcHg7c3Ryb2tlLWxpbmVjYXA6YnV0dDtzdHJva2UtbGluZWpvaW46bWl0ZXI7c3Ryb2tlLW9wYWNpdHk6MSIgaWQ9InBhdGg5NjktOCIvPiYjeGE7ICA8L2c+JiN4YTs8L3N2Zz4=;" parent="1" vertex="1">
          <mxGeometry x="1010" y="452.89" width="79.46" height="70" as="geometry" />
        </mxCell>
        <mxCell id="E1FX8N6gV22873NUNVKT-5" style="edgeStyle=orthogonalEdgeStyle;rounded=0;orthogonalLoop=1;jettySize=auto;html=1;entryX=0.494;entryY=-0.025;entryDx=0;entryDy=0;entryPerimeter=0;" parent="1" source="JK7YFxVibYTY0rTPsKsH-1" target="Gqd14W3-ECIcyz9NjLz_-1" edge="1">
          <mxGeometry relative="1" as="geometry" />
        </mxCell>
        <mxCell id="E1FX8N6gV22873NUNVKT-6" value="push&lt;div&gt;&lt;br&gt;&lt;/div&gt;" style="edgeLabel;html=1;align=center;verticalAlign=middle;resizable=0;points=[];" parent="E1FX8N6gV22873NUNVKT-5" vertex="1" connectable="0">
          <mxGeometry x="0.2473" y="-1" relative="1" as="geometry">
            <mxPoint as="offset" />
          </mxGeometry>
        </mxCell>
        <mxCell id="lcUjFP_W0fT0zAEq8M_V-1" value="AWS Account" style="points=[[0,0],[0.25,0],[0.5,0],[0.75,0],[1,0],[1,0.25],[1,0.5],[1,0.75],[1,1],[0.75,1],[0.5,1],[0.25,1],[0,1],[0,0.75],[0,0.5],[0,0.25]];outlineConnect=0;gradientColor=none;html=1;whiteSpace=wrap;fontSize=12;fontStyle=0;container=1;pointerEvents=0;collapsible=0;recursiveResize=0;shape=mxgraph.aws4.group;grIcon=mxgraph.aws4.group_account;strokeColor=#CD2264;fillColor=none;verticalAlign=top;align=left;spacingLeft=30;fontColor=#CD2264;dashed=0;" parent="1" vertex="1">
          <mxGeometry x="690" y="20" width="250" height="228.00000000000003" as="geometry" />
        </mxCell>
        <mxCell id="lcUjFP_W0fT0zAEq8M_V-2" style="edgeStyle=orthogonalEdgeStyle;rounded=0;orthogonalLoop=1;jettySize=auto;html=1;" parent="lcUjFP_W0fT0zAEq8M_V-1" source="lcUjFP_W0fT0zAEq8M_V-3" target="lcUjFP_W0fT0zAEq8M_V-5" edge="1">
          <mxGeometry relative="1" as="geometry" />
        </mxCell>
        <mxCell id="lcUjFP_W0fT0zAEq8M_V-3" value="secrets manager" style="sketch=0;points=[[0,0,0],[0.25,0,0],[0.5,0,0],[0.75,0,0],[1,0,0],[0,1,0],[0.25,1,0],[0.5,1,0],[0.75,1,0],[1,1,0],[0,0.25,0],[0,0.5,0],[0,0.75,0],[1,0.25,0],[1,0.5,0],[1,0.75,0]];outlineConnect=0;fontColor=#232F3E;fillColor=#DD344C;strokeColor=#ffffff;dashed=0;verticalLabelPosition=bottom;verticalAlign=top;align=center;html=1;fontSize=12;fontStyle=0;aspect=fixed;shape=mxgraph.aws4.resourceIcon;resIcon=mxgraph.aws4.secrets_manager;" parent="lcUjFP_W0fT0zAEq8M_V-1" vertex="1">
          <mxGeometry x="160" y="130" width="50" height="50" as="geometry" />
        </mxCell>
        <mxCell id="lcUjFP_W0fT0zAEq8M_V-4" value="IAM role" style="outlineConnect=0;dashed=0;verticalLabelPosition=bottom;verticalAlign=top;align=center;html=1;shape=mxgraph.aws3.role;fillColor=#759C3E;gradientColor=none;" parent="lcUjFP_W0fT0zAEq8M_V-1" vertex="1">
          <mxGeometry x="30" y="65.25" width="70" height="54.75" as="geometry" />
        </mxCell>
        <mxCell id="lcUjFP_W0fT0zAEq8M_V-5" value="kms" style="sketch=0;points=[[0,0,0],[0.25,0,0],[0.5,0,0],[0.75,0,0],[1,0,0],[0,1,0],[0.25,1,0],[0.5,1,0],[0.75,1,0],[1,1,0],[0,0.25,0],[0,0.5,0],[0,0.75,0],[1,0.25,0],[1,0.5,0],[1,0.75,0]];outlineConnect=0;fontColor=#232F3E;fillColor=#DD344C;strokeColor=#ffffff;dashed=0;verticalLabelPosition=bottom;verticalAlign=top;align=center;html=1;fontSize=12;fontStyle=0;aspect=fixed;shape=mxgraph.aws4.resourceIcon;resIcon=mxgraph.aws4.key_management_service;" parent="lcUjFP_W0fT0zAEq8M_V-1" vertex="1">
          <mxGeometry x="160" y="20" width="50" height="50" as="geometry" />
        </mxCell>
        <mxCell id="lcUjFP_W0fT0zAEq8M_V-6" style="edgeStyle=orthogonalEdgeStyle;rounded=0;orthogonalLoop=1;jettySize=auto;html=1;entryX=0;entryY=0.5;entryDx=0;entryDy=0;entryPerimeter=0;" parent="lcUjFP_W0fT0zAEq8M_V-1" source="lcUjFP_W0fT0zAEq8M_V-4" target="lcUjFP_W0fT0zAEq8M_V-3" edge="1">
          <mxGeometry relative="1" as="geometry" />
        </mxCell>
        <mxCell id="fY1YCJaybagAY9zyOnzN-5" style="edgeStyle=orthogonalEdgeStyle;rounded=0;orthogonalLoop=1;jettySize=auto;html=1;entryX=0;entryY=0.5;entryDx=0;entryDy=0;" parent="1" source="fY1YCJaybagAY9zyOnzN-2" target="lcUjFP_W0fT0zAEq8M_V-1" edge="1">
          <mxGeometry relative="1" as="geometry">
            <Array as="points">
              <mxPoint x="270" y="200" />
              <mxPoint x="560" y="200" />
              <mxPoint x="560" y="134" />
            </Array>
          </mxGeometry>
        </mxCell>
        <mxCell id="fY1YCJaybagAY9zyOnzN-6" value="AssumeRoleWithWebIdentity" style="edgeLabel;html=1;align=center;verticalAlign=middle;resizable=0;points=[];" parent="fY1YCJaybagAY9zyOnzN-5" vertex="1" connectable="0">
          <mxGeometry x="-0.222" y="4" relative="1" as="geometry">
            <mxPoint y="1" as="offset" />
          </mxGeometry>
        </mxCell>
        <mxCell id="fY1YCJaybagAY9zyOnzN-2" value="Get pipeline&lt;div&gt;credentials&lt;/div&gt;" style="rounded=1;whiteSpace=wrap;html=1;fontStyle=1;fillColor=#dae8fc;strokeColor=#6c8ebf;" parent="1" vertex="1">
          <mxGeometry x="230" y="277" width="80" height="60" as="geometry" />
        </mxCell>
        <mxCell id="3B1uC-KXJTwkqsEbNb2T-1" value="" style="shape=image;verticalLabelPosition=bottom;labelBackgroundColor=default;verticalAlign=top;aspect=fixed;imageAspect=0;image=https://static-00.iconduck.com/assets.00/sonarqube-icon-2048x499-b6mw67zs.png;" vertex="1" parent="1">
          <mxGeometry x="451.67" y="283" width="180.82" height="44" as="geometry" />
        </mxCell>
      </root>
    </mxGraphModel>
  </diagram>
  <diagram id="XoyQ9FDVZ8umIns2GZkF" name="CD">
    <mxGraphModel dx="1244" dy="894" grid="1" gridSize="10" guides="1" tooltips="1" connect="1" arrows="1" fold="1" page="1" pageScale="1" pageWidth="1169" pageHeight="827" math="0" shadow="0">
      <root>
        <mxCell id="0" />
        <mxCell id="1" parent="0" />
        <mxCell id="6Gxedhx7N8boJKOJhCx--2" style="edgeStyle=orthogonalEdgeStyle;rounded=0;orthogonalLoop=1;jettySize=auto;html=1;" parent="1" source="J4ao7lIipJSIquDTqzq1-1" target="6Gxedhx7N8boJKOJhCx--1" edge="1">
          <mxGeometry relative="1" as="geometry" />
        </mxCell>
        <mxCell id="aD9X41WpYt3ooe19vhv1-1" value="push" style="edgeLabel;html=1;align=center;verticalAlign=middle;resizable=0;points=[];" parent="6Gxedhx7N8boJKOJhCx--2" vertex="1" connectable="0">
          <mxGeometry x="-0.25" y="2" relative="1" as="geometry">
            <mxPoint as="offset" />
          </mxGeometry>
        </mxCell>
        <mxCell id="J4ao7lIipJSIquDTqzq1-1" value="Update manifests" style="shape=image;verticalLabelPosition=bottom;labelBackgroundColor=default;verticalAlign=top;aspect=fixed;imageAspect=0;image=https://static.thenounproject.com/png/2598367-200.png;imageBackground=none;imageBorder=none;" parent="1" vertex="1">
          <mxGeometry x="205.73000000000002" y="39.5" width="100" height="100" as="geometry" />
        </mxCell>
        <mxCell id="HT4Mspcv5rQanIQbnvdI-2" style="edgeStyle=orthogonalEdgeStyle;rounded=0;orthogonalLoop=1;jettySize=auto;html=1;" parent="1" source="HT4Mspcv5rQanIQbnvdI-1" target="J4ao7lIipJSIquDTqzq1-1" edge="1">
          <mxGeometry relative="1" as="geometry" />
        </mxCell>
        <mxCell id="aD9X41WpYt3ooe19vhv1-11" value="Update" style="edgeLabel;html=1;align=center;verticalAlign=middle;resizable=0;points=[];" parent="HT4Mspcv5rQanIQbnvdI-2" vertex="1" connectable="0">
          <mxGeometry x="-0.1087" y="1" relative="1" as="geometry">
            <mxPoint as="offset" />
          </mxGeometry>
        </mxCell>
        <mxCell id="HT4Mspcv5rQanIQbnvdI-1" value="Container Registry" style="image;aspect=fixed;html=1;points=[];align=center;fontSize=12;image=img/lib/azure2/containers/Container_Registries.svg;" parent="1" vertex="1">
          <mxGeometry x="45.730000000000004" y="59.00000000000006" width="68" height="61" as="geometry" />
        </mxCell>
        <mxCell id="HT4Mspcv5rQanIQbnvdI-10" value="" style="rounded=0;whiteSpace=wrap;html=1;fillColor=none;" parent="1" vertex="1">
          <mxGeometry x="639.73" y="29.5" width="320" height="170" as="geometry" />
        </mxCell>
        <mxCell id="iFgb0yHIBvQ8ve3jwh7m-2" style="edgeStyle=orthogonalEdgeStyle;rounded=0;orthogonalLoop=1;jettySize=auto;html=1;entryX=0;entryY=0.5;entryDx=0;entryDy=0;" parent="1" source="6Gxedhx7N8boJKOJhCx--1" target="aD9X41WpYt3ooe19vhv1-4" edge="1">
          <mxGeometry relative="1" as="geometry" />
        </mxCell>
        <mxCell id="iFgb0yHIBvQ8ve3jwh7m-3" value="Sync Definitions" style="edgeLabel;html=1;align=center;verticalAlign=middle;resizable=0;points=[];" parent="iFgb0yHIBvQ8ve3jwh7m-2" vertex="1" connectable="0">
          <mxGeometry x="-0.487" y="2" relative="1" as="geometry">
            <mxPoint y="1" as="offset" />
          </mxGeometry>
        </mxCell>
        <mxCell id="6Gxedhx7N8boJKOJhCx--1" value="Manifests&amp;nbsp;&lt;div&gt;Repo&lt;/div&gt;" style="verticalLabelPosition=bottom;html=1;verticalAlign=top;align=center;strokeColor=none;fillColor=#CC0000;shape=mxgraph.azure.git_repository;" parent="1" vertex="1">
          <mxGeometry x="385.73" y="57.5" width="64" height="64" as="geometry" />
        </mxCell>
        <mxCell id="aD9X41WpYt3ooe19vhv1-3" value="" style="image;sketch=0;aspect=fixed;html=1;points=[];align=center;fontSize=12;image=img/lib/mscae/Kubernetes.svg;" parent="1" vertex="1">
          <mxGeometry x="899.73" y="39.5" width="50" height="48" as="geometry" />
        </mxCell>
        <mxCell id="aFUCAQFi_0JTj3ou8Ujk-3" style="edgeStyle=orthogonalEdgeStyle;rounded=0;orthogonalLoop=1;jettySize=auto;html=1;startArrow=classic;startFill=1;" parent="1" source="aD9X41WpYt3ooe19vhv1-4" target="aD9X41WpYt3ooe19vhv1-7" edge="1">
          <mxGeometry relative="1" as="geometry" />
        </mxCell>
        <mxCell id="aFUCAQFi_0JTj3ou8Ujk-14" style="edgeStyle=orthogonalEdgeStyle;rounded=0;orthogonalLoop=1;jettySize=auto;html=1;" parent="1" edge="1">
          <mxGeometry relative="1" as="geometry">
            <Array as="points">
              <mxPoint x="700" y="122" />
              <mxPoint x="700" y="270" />
              <mxPoint x="600" y="270" />
            </Array>
            <mxPoint x="694" y="122" as="sourcePoint" />
            <mxPoint x="600" y="405.75" as="targetPoint" />
          </mxGeometry>
        </mxCell>
        <mxCell id="iFgb0yHIBvQ8ve3jwh7m-4" value="Deploy" style="edgeLabel;html=1;align=center;verticalAlign=middle;resizable=0;points=[];" parent="aFUCAQFi_0JTj3ou8Ujk-14" vertex="1" connectable="0">
          <mxGeometry x="0.1491" relative="1" as="geometry">
            <mxPoint x="22" y="-6" as="offset" />
          </mxGeometry>
        </mxCell>
        <mxCell id="87N7iM2kMU3XH2jsXML_-33" style="edgeStyle=orthogonalEdgeStyle;rounded=0;orthogonalLoop=1;jettySize=auto;html=1;" parent="1" source="aD9X41WpYt3ooe19vhv1-4" target="87N7iM2kMU3XH2jsXML_-31" edge="1">
          <mxGeometry relative="1" as="geometry">
            <Array as="points">
              <mxPoint x="700" y="270" />
              <mxPoint x="926" y="270" />
            </Array>
          </mxGeometry>
        </mxCell>
        <mxCell id="iFgb0yHIBvQ8ve3jwh7m-5" value="Deploy" style="edgeLabel;html=1;align=center;verticalAlign=middle;resizable=0;points=[];" parent="87N7iM2kMU3XH2jsXML_-33" vertex="1" connectable="0">
          <mxGeometry x="-0.0429" y="-2" relative="1" as="geometry">
            <mxPoint as="offset" />
          </mxGeometry>
        </mxCell>
        <mxCell id="aD9X41WpYt3ooe19vhv1-4" value="AgroCD" style="shape=image;verticalLabelPosition=bottom;labelBackgroundColor=default;verticalAlign=top;aspect=fixed;imageAspect=0;image=https://icons-for-free.com/iff/png/512/argocd-1331550886883580947.png;" parent="1" vertex="1">
          <mxGeometry x="669.73" y="60" width="60" height="60" as="geometry" />
        </mxCell>
        <mxCell id="aD9X41WpYt3ooe19vhv1-7" value="Kubenetes cluster" style="sketch=0;pointerEvents=1;shadow=0;dashed=0;html=1;strokeColor=none;fillColor=#505050;labelPosition=center;verticalLabelPosition=bottom;verticalAlign=top;outlineConnect=0;align=center;shape=mxgraph.office.servers.cluster_server;" parent="1" vertex="1">
          <mxGeometry x="841.73" y="102" width="49" height="59" as="geometry" />
        </mxCell>
        <mxCell id="aFUCAQFi_0JTj3ou8Ujk-2" value="AgroCD cluster" style="edgeLabel;html=1;align=center;verticalAlign=middle;resizable=0;points=[];" parent="1" vertex="1" connectable="0">
          <mxGeometry x="929.73" y="49.5" as="geometry">
            <mxPoint x="-92" y="2" as="offset" />
          </mxGeometry>
        </mxCell>
        <mxCell id="nSjHNN2xH5Ezz-ghqs0a-2" style="edgeStyle=orthogonalEdgeStyle;rounded=0;orthogonalLoop=1;jettySize=auto;html=1;" parent="1" source="nSjHNN2xH5Ezz-ghqs0a-1" target="J4ao7lIipJSIquDTqzq1-1" edge="1">
          <mxGeometry relative="1" as="geometry" />
        </mxCell>
        <mxCell id="nSjHNN2xH5Ezz-ghqs0a-3" value="Checkout" style="edgeLabel;html=1;align=center;verticalAlign=middle;resizable=0;points=[];" parent="nSjHNN2xH5Ezz-ghqs0a-2" vertex="1" connectable="0">
          <mxGeometry x="-0.4457" y="-5" relative="1" as="geometry">
            <mxPoint as="offset" />
          </mxGeometry>
        </mxCell>
        <mxCell id="nSjHNN2xH5Ezz-ghqs0a-1" value="&lt;font color=&quot;#000000&quot;&gt;Artifact&lt;br&gt;Registry&lt;/font&gt;" style="sketch=0;html=1;verticalAlign=top;labelPosition=center;verticalLabelPosition=bottom;align=center;spacingTop=-6;fontSize=11;fontStyle=1;fontColor=#999999;shape=image;aspect=fixed;imageAspect=0;image=data:image/svg+xml,PHN2ZyB4bWxucz0iaHR0cDovL3d3dy53My5vcmcvMjAwMC9zdmciIGlkPSJzdmc4MjciIHZlcnNpb249IjEuMSIgdmlld0JveD0iMCAwIDIwNS41MTIyOCAxODAuNTE4MjUiIGhlaWdodD0iMTgwLjUxODI1bW0iIHdpZHRoPSIyMDUuNTEyMjhtbSI+JiN4YTsgICYjeGE7ICA8ZGVmcyBpZD0iZGVmczgyNCIvPiYjeGE7ICA8ZyB0cmFuc2Zvcm09InRyYW5zbGF0ZSgtNC42MDIwNzI4LC01Ni43NjcxMjYpIiBpZD0ibGF5ZXIxIj4mI3hhOyAgICA8cGF0aCBkPSJtIDE0Mi4zMDMzMiwyMDIuNTM2NzUgMjYuNjMwNzgsLTE0Ljc0MDkzIHYgLTI5LjExOTQ4IGwgLTI2LjYzMDc4LDE0Ljg2ODYzIHogbSAtNC44MzQ4OSwwIC0yNi42MzA3OCwtMTQuNzQwOTMgdiAtMjkuMTE5NDggbCAyNi42MzA3OCwxNC44Njg2MyB6IG0gLTI3LjM3NTc4LC01My4zNDI2NCAyNi42MzA3NywtMTQuNzQwOTMgViAxMDUuMzMzNyBsIC0yNi42MzA3NywxNC44Njg2MyB6IG0gLTQuODM0OSwwIC0yNi42MzA3NzcsLTE0Ljc0MDkzIFYgMTA1LjMzMzcgbCAyNi42MzA3NzcsMTQuODY4NjMgeiBtIC0yNy4zNzU3ODgsNTMuMzQyNjQgMjYuNjMwNzc4LC0xNC43NDA5MyB2IC0yOS4xMTk0OCBsIC0yNi42MzA3NzgsMTQuODY4NjMgeiBtIC00LjgzNDg5MywwIC0yNi42MzA3NzksLTE0Ljc0MDkzIHYgLTI5LjExOTQ4IGwgMjYuNjMwNzc5LDE0Ljg2ODYzIHogTSAyMTAuMTE0MzYsMTg1LjQ1NzQzIFYgMTA4LjU1NzM1IEwgMTg5LjY4MTczLDk2LjcxMDk4MSBWIDE5Ny4zMjgwMiBaIG0gLTIwNS41MTIyODcyLDAgViAxMDguNTU3MzUgTCAyNS4wMzQ2OTYsOTYuNzEwOTgxIFYgMTk3LjMyODAyIFoiIHN0eWxlPSJvcGFjaXR5OjE7ZmlsbDojMzM2N2Q2O2ZpbGwtb3BhY2l0eToxO3N0cm9rZTpub25lO3N0cm9rZS13aWR0aDowLjI2NDU4M3B4O3N0cm9rZS1saW5lY2FwOmJ1dHQ7c3Ryb2tlLWxpbmVqb2luOm1pdGVyO3N0cm9rZS1vcGFjaXR5OjEiIGlkPSJwYXRoOTY3LTAtNiIvPiYjeGE7ICAgIDxwYXRoIGQ9Im0gMTM5Ljc5MjI1LDE2OC4yODM3OSAtMjYuMDI5NjQsLTE0LjUxMjkzIDI2LjAyOTY0LC0xNC40MTkzIDI2LjIxNjg5LDE0LjQxOTMgeiBNIDEwNy41ODE1NywxMTQuOTQxMTUgODEuNTUxOTM0LDEwMC40MjgyMiAxMDcuNTgxNTcsODYuMDA4OTE4IDEzMy43OTg0NiwxMDAuNDI4MjIgWiBtIC0zMi4yMTA2ODUsNTMuMzQyNjQgLTI2LjAyOTYzNCwtMTQuNTEyOTMgMjYuMDI5NjM0LC0xNC40MTkzIDI2LjIxNjg5NSwxNC40MTkzIHogbSA4Ni43OTQ3MDUsNjkuMDAxNTkgNDcuOTQ4NzcsLTI3Ljc4NzQ2IHYgLTI0LjA0MDQ5IGwgLTQ3Ljk0ODc3LDI3Ljg1ODIyIHogTSAyMTAuMTE0MzYsODQuNTUyNTU3IDE2Mi4xNjU1OSw1Ni43NjcxMjYgdiAyMy45NjU5MjEgbCA0Ny45NDg3NywyNy44MjQzMDMgeiBNIDUyLjU1MDgzNSwyMzcuMjg1MzggNC42MDIwNzI4LDIwOS40OTc5MiBWIDE4NS40NTc0MyBMIDUyLjU1MDgzNSwyMTMuMzE1NjUgWiBNIDQuNjAyMDcyOCw4NC41NTI1NTcgNTIuNTUwODM1LDU2Ljc2NzEyNiBWIDgwLjczMzA0NyBMIDQuNjAyMDcyOCwxMDguNTU3MzUgWiIgc3R5bGU9Im9wYWNpdHk6MTtmaWxsOiM1Yzg1ZGU7ZmlsbC1vcGFjaXR5OjE7c3Ryb2tlOm5vbmU7c3Ryb2tlLXdpZHRoOjAuMjY0NTgzcHg7c3Ryb2tlLWxpbmVjYXA6YnV0dDtzdHJva2UtbGluZWpvaW46bWl0ZXI7c3Ryb2tlLW9wYWNpdHk6MSIgaWQ9InBhdGg5NjktOCIvPiYjeGE7ICA8L2c+JiN4YTs8L3N2Zz4=;" parent="1" vertex="1">
          <mxGeometry x="39.999999999999986" y="229" width="79.46" height="70" as="geometry" />
        </mxCell>
        <mxCell id="87N7iM2kMU3XH2jsXML_-27" value="" style="group" parent="1" vertex="1" connectable="0">
          <mxGeometry x="455.73" y="329.5" width="260" height="170" as="geometry" />
        </mxCell>
        <mxCell id="aFUCAQFi_0JTj3ou8Ujk-4" value="" style="rounded=0;whiteSpace=wrap;html=1;fillColor=none;" parent="87N7iM2kMU3XH2jsXML_-27" vertex="1">
          <mxGeometry width="260" height="170" as="geometry" />
        </mxCell>
        <mxCell id="aFUCAQFi_0JTj3ou8Ujk-5" value="" style="image;sketch=0;aspect=fixed;html=1;points=[];align=center;fontSize=12;image=img/lib/mscae/Kubernetes.svg;" parent="87N7iM2kMU3XH2jsXML_-27" vertex="1">
          <mxGeometry x="200" y="26" width="50" height="48" as="geometry" />
        </mxCell>
        <mxCell id="aFUCAQFi_0JTj3ou8Ujk-8" value="Kubenetes cluster" style="sketch=0;pointerEvents=1;shadow=0;dashed=0;html=1;strokeColor=none;fillColor=#505050;labelPosition=center;verticalLabelPosition=bottom;verticalAlign=top;outlineConnect=0;align=center;shape=mxgraph.office.servers.cluster_server;" parent="87N7iM2kMU3XH2jsXML_-27" vertex="1">
          <mxGeometry x="100" y="74" width="49" height="59" as="geometry" />
        </mxCell>
        <mxCell id="aFUCAQFi_0JTj3ou8Ujk-9" value="DEV Cluster1" style="edgeLabel;html=1;align=center;verticalAlign=middle;resizable=0;points=[];" parent="87N7iM2kMU3XH2jsXML_-27" vertex="1" connectable="0">
          <mxGeometry x="310" y="10" as="geometry">
            <mxPoint x="-92" y="2" as="offset" />
          </mxGeometry>
        </mxCell>
        <mxCell id="87N7iM2kMU3XH2jsXML_-28" value="" style="group" parent="1" vertex="1" connectable="0">
          <mxGeometry x="805.73" y="329.5" width="260" height="170" as="geometry" />
        </mxCell>
        <mxCell id="87N7iM2kMU3XH2jsXML_-29" value="" style="rounded=0;whiteSpace=wrap;html=1;fillColor=none;" parent="87N7iM2kMU3XH2jsXML_-28" vertex="1">
          <mxGeometry width="260" height="170" as="geometry" />
        </mxCell>
        <mxCell id="87N7iM2kMU3XH2jsXML_-30" value="" style="image;sketch=0;aspect=fixed;html=1;points=[];align=center;fontSize=12;image=img/lib/mscae/Kubernetes.svg;" parent="87N7iM2kMU3XH2jsXML_-28" vertex="1">
          <mxGeometry x="200" y="26" width="50" height="48" as="geometry" />
        </mxCell>
        <mxCell id="87N7iM2kMU3XH2jsXML_-31" value="Kubenetes cluster" style="sketch=0;pointerEvents=1;shadow=0;dashed=0;html=1;strokeColor=none;fillColor=#505050;labelPosition=center;verticalLabelPosition=bottom;verticalAlign=top;outlineConnect=0;align=center;shape=mxgraph.office.servers.cluster_server;" parent="87N7iM2kMU3XH2jsXML_-28" vertex="1">
          <mxGeometry x="100" y="74" width="49" height="59" as="geometry" />
        </mxCell>
        <mxCell id="87N7iM2kMU3XH2jsXML_-32" value="UAT Cluster1" style="edgeLabel;html=1;align=center;verticalAlign=middle;resizable=0;points=[];" parent="87N7iM2kMU3XH2jsXML_-28" vertex="1" connectable="0">
          <mxGeometry x="310" y="10" as="geometry">
            <mxPoint x="-92" y="2" as="offset" />
          </mxGeometry>
        </mxCell>
      </root>
    </mxGraphModel>
  </diagram>
  <diagram id="vprTH2KSjunl410L6HpZ" name="k8s">
    <mxGraphModel dx="1244" dy="894" grid="1" gridSize="10" guides="1" tooltips="1" connect="1" arrows="1" fold="1" page="1" pageScale="1" pageWidth="1169" pageHeight="827" math="0" shadow="0">
      <root>
        <mxCell id="0" />
        <mxCell id="1" parent="0" />
        <mxCell id="6eMF-F5gttXPWiPwgopi-5" value="s" style="rounded=0;whiteSpace=wrap;html=1;fillColor=none;" parent="1" vertex="1">
          <mxGeometry x="110" y="370" width="930" height="720" as="geometry" />
        </mxCell>
        <mxCell id="uH2XNrUpkTFlzk_03d7L-3" style="edgeStyle=orthogonalEdgeStyle;rounded=0;orthogonalLoop=1;jettySize=auto;html=1;" parent="1" source="uH2XNrUpkTFlzk_03d7L-1" target="uH2XNrUpkTFlzk_03d7L-2" edge="1">
          <mxGeometry relative="1" as="geometry" />
        </mxCell>
        <mxCell id="uH2XNrUpkTFlzk_03d7L-1" value="User" style="html=1;whiteSpace=wrap;strokeColor=none;fillColor=#0079D6;labelPosition=center;verticalLabelPosition=middle;verticalAlign=top;align=center;fontSize=12;outlineConnect=0;spacingTop=-6;fontColor=#FFFFFF;sketch=0;shape=mxgraph.sitemap.user;" parent="1" vertex="1">
          <mxGeometry x="40" y="40" width="120" height="70" as="geometry" />
        </mxCell>
        <mxCell id="uH2XNrUpkTFlzk_03d7L-8" style="edgeStyle=orthogonalEdgeStyle;rounded=0;orthogonalLoop=1;jettySize=auto;html=1;entryX=0;entryY=0.5;entryDx=0;entryDy=0;" parent="1" source="hJ8XfWCP7vXrUUp78s-e-10" target="uH2XNrUpkTFlzk_03d7L-7" edge="1">
          <mxGeometry relative="1" as="geometry" />
        </mxCell>
        <mxCell id="uH2XNrUpkTFlzk_03d7L-2" value="xyz&lt;div&gt;Domain Controller&lt;/div&gt;" style="image;aspect=fixed;perimeter=ellipsePerimeter;html=1;align=center;shadow=0;dashed=0;spacingTop=3;image=img/lib/active_directory/domain_controller.svg;fontStyle=1" parent="1" vertex="1">
          <mxGeometry x="270" y="50" width="35" height="50" as="geometry" />
        </mxCell>
        <mxCell id="_uvUFfz-k6Og6nQMRo5o-11" style="edgeStyle=orthogonalEdgeStyle;rounded=0;orthogonalLoop=1;jettySize=auto;html=1;entryX=0.5;entryY=0;entryDx=0;entryDy=0;" parent="1" source="hJ8XfWCP7vXrUUp78s-e-1" target="_uvUFfz-k6Og6nQMRo5o-5" edge="1">
          <mxGeometry relative="1" as="geometry">
            <Array as="points">
              <mxPoint x="535" y="180" />
            </Array>
          </mxGeometry>
        </mxCell>
        <mxCell id="uH2XNrUpkTFlzk_03d7L-4" value="Network Load Balancer" style="sketch=0;outlineConnect=0;fontColor=#232F3E;gradientColor=none;fillColor=#8C4FFF;strokeColor=none;dashed=0;verticalLabelPosition=bottom;verticalAlign=top;align=center;html=1;fontSize=12;fontStyle=1;aspect=fixed;pointerEvents=1;shape=mxgraph.aws4.network_load_balancer;" parent="1" vertex="1">
          <mxGeometry x="590" y="36" width="78" height="78" as="geometry" />
        </mxCell>
        <mxCell id="uH2XNrUpkTFlzk_03d7L-9" style="edgeStyle=orthogonalEdgeStyle;rounded=0;orthogonalLoop=1;jettySize=auto;html=1;" parent="1" source="hJ8XfWCP7vXrUUp78s-e-13" target="uH2XNrUpkTFlzk_03d7L-4" edge="1">
          <mxGeometry relative="1" as="geometry" />
        </mxCell>
        <mxCell id="uH2XNrUpkTFlzk_03d7L-7" value="Cloud&#xa;CDN" style="sketch=0;html=1;verticalAlign=top;labelPosition=center;verticalLabelPosition=bottom;align=center;spacingTop=-6;fontSize=11;fontStyle=1;fontColor=#000000;shape=image;aspect=fixed;imageAspect=0;image=data:image/svg+xml,PHN2ZyB4bWxucz0iaHR0cDovL3d3dy53My5vcmcvMjAwMC9zdmciIHhtbG5zOnY9Imh0dHBzOi8vdmVjdGEuaW8vbmFubyIgd2lkdGg9IjIwIiBoZWlnaHQ9IjIwIiB2aWV3Qm94PSIwIDAgMjAgMjAiPiYjeGE7CTxzdHlsZSB0eXBlPSJ0ZXh0L2NzcyI+JiN4YTsJLnN0MHtmaWxsOiM0Mjg1ZjQ7fSYjeGE7CS5zdDF7ZmlsbDojNjY5ZGY2O30mI3hhOwkuc3Qye2ZpbGw6I2FlY2JmYTt9JiN4YTsJPC9zdHlsZT4mI3hhOwk8cGF0aCBjbGFzcz0ic3QxIiBkPSJNMTMuMTMgNS42M1YzLjIxTDEwIDB2Mi40MXptMy43NSA3LjVMMjAgMTBoLTIuNWwtMy4xMiAzLjEzem0tMTMuNzUgMEwwIDEwaDIuNWwzLjEzIDMuMTN6bTEwIDEuMjV2Mi40MUwxMCAyMHYtMi40MXoiIGZpbGwtcnVsZT0iZXZlbm9kZCIvPiYjeGE7CTxwYXRoIGNsYXNzPSJzdDIiIGQ9Ik02Ljg4IDUuNjNMMTAgMi40MVYwTDYuODggMy4yMXpNMTcuNSAxMEgyMGwtMy4xMi0zLjEyaC0yLjV6bS0xNSAwSDBsMy4xMy0zLjEyaDIuNXptNC4zOCA0LjM4TDEwIDE3LjU5VjIwbC0zLjEyLTMuMjF6bTAtNy41aDYuMjV2Ni4yNUg2Ljg4eiIgZmlsbC1ydWxlPSJldmVub2RkIi8+JiN4YTsJPHBhdGggY2xhc3M9InN0MSIgZD0iTTYuODggMTMuMTNsNi4yNS02LjI1djYuMjV6IiBmaWxsLXJ1bGU9ImV2ZW5vZGQiLz4mI3hhOwk8cGF0aCBjbGFzcz0ic3QwIiBkPSJNMTAgMTBsMy4xMy0zLjEydjYuMjV6IiBmaWxsLXJ1bGU9ImV2ZW5vZGQiLz4mI3hhOzwvc3ZnPg==;" parent="1" vertex="1">
          <mxGeometry x="430" y="45" width="60" height="60" as="geometry" />
        </mxCell>
        <mxCell id="hJ8XfWCP7vXrUUp78s-e-15" style="edgeStyle=orthogonalEdgeStyle;rounded=0;orthogonalLoop=1;jettySize=auto;html=1;exitX=1;exitY=0.5;exitDx=0;exitDy=0;" parent="1" source="_uvUFfz-k6Og6nQMRo5o-5" target="wyEbM92OFawZPas63YVK-76" edge="1">
          <mxGeometry relative="1" as="geometry">
            <mxPoint x="560" y="274" as="sourcePoint" />
          </mxGeometry>
        </mxCell>
        <mxCell id="wyEbM92OFawZPas63YVK-71" value="" style="group;fontStyle=1" parent="1" vertex="1" connectable="0">
          <mxGeometry x="160" y="440" width="305" height="561" as="geometry" />
        </mxCell>
        <mxCell id="wyEbM92OFawZPas63YVK-29" value="" style="rounded=1;whiteSpace=wrap;html=1;fillColor=none;dashed=1;movable=1;resizable=1;rotatable=1;deletable=1;editable=1;locked=0;connectable=1;" parent="wyEbM92OFawZPas63YVK-71" vertex="1">
          <mxGeometry x="30" width="250" height="561" as="geometry" />
        </mxCell>
        <mxCell id="wyEbM92OFawZPas63YVK-12" style="edgeStyle=orthogonalEdgeStyle;rounded=0;orthogonalLoop=1;jettySize=auto;html=1;" parent="wyEbM92OFawZPas63YVK-71" source="wyEbM92OFawZPas63YVK-5" target="wyEbM92OFawZPas63YVK-10" edge="1">
          <mxGeometry relative="1" as="geometry" />
        </mxCell>
        <mxCell id="wyEbM92OFawZPas63YVK-14" style="edgeStyle=orthogonalEdgeStyle;rounded=0;orthogonalLoop=1;jettySize=auto;html=1;" parent="wyEbM92OFawZPas63YVK-71" source="wyEbM92OFawZPas63YVK-5" target="wyEbM92OFawZPas63YVK-11" edge="1">
          <mxGeometry relative="1" as="geometry" />
        </mxCell>
        <mxCell id="wyEbM92OFawZPas63YVK-5" value="app1-svc" style="aspect=fixed;sketch=0;html=1;dashed=0;whitespace=wrap;verticalLabelPosition=bottom;verticalAlign=top;fillColor=#2875E2;strokeColor=#ffffff;points=[[0.005,0.63,0],[0.1,0.2,0],[0.9,0.2,0],[0.5,0,0],[0.995,0.63,0],[0.72,0.99,0],[0.5,1,0],[0.28,0.99,0]];shape=mxgraph.kubernetes.icon2;kubernetesLabel=1;prIcon=svc;fontStyle=1" parent="wyEbM92OFawZPas63YVK-71" vertex="1">
          <mxGeometry x="130" y="20" width="50" height="48" as="geometry" />
        </mxCell>
        <mxCell id="wyEbM92OFawZPas63YVK-10" value="pod1" style="aspect=fixed;sketch=0;html=1;dashed=0;whitespace=wrap;verticalLabelPosition=bottom;verticalAlign=top;fillColor=#2875E2;strokeColor=#ffffff;points=[[0.005,0.63,0],[0.1,0.2,0],[0.9,0.2,0],[0.5,0,0],[0.995,0.63,0],[0.72,0.99,0],[0.5,1,0],[0.28,0.99,0]];shape=mxgraph.kubernetes.icon2;kubernetesLabel=1;prIcon=pod" parent="wyEbM92OFawZPas63YVK-71" vertex="1">
          <mxGeometry x="90" y="141" width="50" height="48" as="geometry" />
        </mxCell>
        <mxCell id="wyEbM92OFawZPas63YVK-11" value="pod2" style="aspect=fixed;sketch=0;html=1;dashed=0;whitespace=wrap;verticalLabelPosition=bottom;verticalAlign=top;fillColor=#2875E2;strokeColor=#ffffff;points=[[0.005,0.63,0],[0.1,0.2,0],[0.9,0.2,0],[0.5,0,0],[0.995,0.63,0],[0.72,0.99,0],[0.5,1,0],[0.28,0.99,0]];shape=mxgraph.kubernetes.icon2;kubernetesLabel=1;prIcon=pod" parent="wyEbM92OFawZPas63YVK-71" vertex="1">
          <mxGeometry x="170" y="141" width="50" height="48" as="geometry" />
        </mxCell>
        <mxCell id="wyEbM92OFawZPas63YVK-24" style="edgeStyle=orthogonalEdgeStyle;rounded=0;orthogonalLoop=1;jettySize=auto;html=1;" parent="wyEbM92OFawZPas63YVK-71" source="wyEbM92OFawZPas63YVK-15" target="wyEbM92OFawZPas63YVK-11" edge="1">
          <mxGeometry relative="1" as="geometry">
            <Array as="points">
              <mxPoint x="155" y="250" />
              <mxPoint x="195" y="250" />
            </Array>
          </mxGeometry>
        </mxCell>
        <mxCell id="wyEbM92OFawZPas63YVK-15" value="" style="aspect=fixed;sketch=0;html=1;dashed=0;whitespace=wrap;verticalLabelPosition=bottom;verticalAlign=top;fillColor=#2875E2;strokeColor=#ffffff;points=[[0.005,0.63,0],[0.1,0.2,0],[0.9,0.2,0],[0.5,0,0],[0.995,0.63,0],[0.72,0.99,0],[0.5,1,0],[0.28,0.99,0]];shape=mxgraph.kubernetes.icon2;kubernetesLabel=1;prIcon=rs" parent="wyEbM92OFawZPas63YVK-71" vertex="1">
          <mxGeometry x="130" y="274" width="50" height="48" as="geometry" />
        </mxCell>
        <mxCell id="wyEbM92OFawZPas63YVK-19" value="deploy" style="aspect=fixed;sketch=0;html=1;dashed=0;whitespace=wrap;verticalLabelPosition=bottom;verticalAlign=top;fillColor=#2875E2;strokeColor=#ffffff;points=[[0.005,0.63,0],[0.1,0.2,0],[0.9,0.2,0],[0.5,0,0],[0.995,0.63,0],[0.72,0.99,0],[0.5,1,0],[0.28,0.99,0]];shape=mxgraph.kubernetes.icon2;kubernetesLabel=1;prIcon=deploy" parent="wyEbM92OFawZPas63YVK-71" vertex="1">
          <mxGeometry x="130" y="364" width="50" height="48" as="geometry" />
        </mxCell>
        <mxCell id="wyEbM92OFawZPas63YVK-20" style="edgeStyle=orthogonalEdgeStyle;rounded=0;orthogonalLoop=1;jettySize=auto;html=1;entryX=0.5;entryY=1;entryDx=0;entryDy=0;entryPerimeter=0;" parent="wyEbM92OFawZPas63YVK-71" source="wyEbM92OFawZPas63YVK-19" target="wyEbM92OFawZPas63YVK-15" edge="1">
          <mxGeometry relative="1" as="geometry" />
        </mxCell>
        <mxCell id="wyEbM92OFawZPas63YVK-25" style="edgeStyle=orthogonalEdgeStyle;rounded=0;orthogonalLoop=1;jettySize=auto;html=1;entryX=0.5;entryY=1;entryDx=0;entryDy=0;entryPerimeter=0;" parent="wyEbM92OFawZPas63YVK-71" source="wyEbM92OFawZPas63YVK-15" target="wyEbM92OFawZPas63YVK-10" edge="1">
          <mxGeometry relative="1" as="geometry">
            <Array as="points">
              <mxPoint x="155" y="250" />
              <mxPoint x="115" y="250" />
            </Array>
          </mxGeometry>
        </mxCell>
        <mxCell id="wyEbM92OFawZPas63YVK-26" value="hpa" style="aspect=fixed;sketch=0;html=1;dashed=0;whitespace=wrap;verticalLabelPosition=bottom;verticalAlign=top;fillColor=#2875E2;strokeColor=#ffffff;points=[[0.005,0.63,0],[0.1,0.2,0],[0.9,0.2,0],[0.5,0,0],[0.995,0.63,0],[0.72,0.99,0],[0.5,1,0],[0.28,0.99,0]];shape=mxgraph.kubernetes.icon2;kubernetesLabel=1;prIcon=hpa" parent="wyEbM92OFawZPas63YVK-71" vertex="1">
          <mxGeometry x="130" y="461" width="50" height="48" as="geometry" />
        </mxCell>
        <mxCell id="wyEbM92OFawZPas63YVK-27" style="edgeStyle=orthogonalEdgeStyle;rounded=0;orthogonalLoop=1;jettySize=auto;html=1;entryX=0.5;entryY=1;entryDx=0;entryDy=0;entryPerimeter=0;" parent="wyEbM92OFawZPas63YVK-71" source="wyEbM92OFawZPas63YVK-26" target="wyEbM92OFawZPas63YVK-19" edge="1">
          <mxGeometry relative="1" as="geometry" />
        </mxCell>
        <mxCell id="wyEbM92OFawZPas63YVK-32" value="" style="aspect=fixed;sketch=0;html=1;dashed=0;whitespace=wrap;verticalLabelPosition=bottom;verticalAlign=top;fillColor=#2875E2;strokeColor=#ffffff;points=[[0.005,0.63,0],[0.1,0.2,0],[0.9,0.2,0],[0.5,0,0],[0.995,0.63,0],[0.72,0.99,0],[0.5,1,0],[0.28,0.99,0]];shape=mxgraph.kubernetes.icon2;kubernetesLabel=1;prIcon=netpol" parent="wyEbM92OFawZPas63YVK-71" vertex="1">
          <mxGeometry x="255" y="210" width="50" height="48" as="geometry" />
        </mxCell>
        <mxCell id="wyEbM92OFawZPas63YVK-33" value="" style="aspect=fixed;sketch=0;html=1;dashed=0;whitespace=wrap;verticalLabelPosition=bottom;verticalAlign=top;fillColor=#2875E2;strokeColor=#ffffff;points=[[0.005,0.63,0],[0.1,0.2,0],[0.9,0.2,0],[0.5,0,0],[0.995,0.63,0],[0.72,0.99,0],[0.5,1,0],[0.28,0.99,0]];shape=mxgraph.kubernetes.icon2;kubernetesLabel=1;prIcon=limits" parent="wyEbM92OFawZPas63YVK-71" vertex="1">
          <mxGeometry y="390" width="50" height="48" as="geometry" />
        </mxCell>
        <mxCell id="wyEbM92OFawZPas63YVK-34" value="" style="aspect=fixed;sketch=0;html=1;dashed=0;whitespace=wrap;verticalLabelPosition=bottom;verticalAlign=top;fillColor=#2875E2;strokeColor=#ffffff;points=[[0.005,0.63,0],[0.1,0.2,0],[0.9,0.2,0],[0.5,0,0],[0.995,0.63,0],[0.72,0.99,0],[0.5,1,0],[0.28,0.99,0]];shape=mxgraph.kubernetes.icon2;kubernetesLabel=1;prIcon=quota" parent="wyEbM92OFawZPas63YVK-71" vertex="1">
          <mxGeometry y="460" width="50" height="48" as="geometry" />
        </mxCell>
        <mxCell id="wyEbM92OFawZPas63YVK-35" value="ns1" style="aspect=fixed;sketch=0;html=1;dashed=0;whitespace=wrap;verticalLabelPosition=bottom;verticalAlign=top;fillColor=#2875E2;strokeColor=#ffffff;points=[[0.005,0.63,0],[0.1,0.2,0],[0.9,0.2,0],[0.5,0,0],[0.995,0.63,0],[0.72,0.99,0],[0.5,1,0],[0.28,0.99,0]];shape=mxgraph.kubernetes.icon2;kubernetesLabel=1;prIcon=ns" parent="wyEbM92OFawZPas63YVK-71" vertex="1">
          <mxGeometry x="10" y="10" width="50" height="48" as="geometry" />
        </mxCell>
        <mxCell id="wyEbM92OFawZPas63YVK-72" value="" style="group" parent="1" vertex="1" connectable="0">
          <mxGeometry x="490" y="440" width="305" height="561" as="geometry" />
        </mxCell>
        <mxCell id="wyEbM92OFawZPas63YVK-73" value="" style="rounded=1;whiteSpace=wrap;html=1;fillColor=none;dashed=1;movable=1;resizable=1;rotatable=1;deletable=1;editable=1;locked=0;connectable=1;" parent="wyEbM92OFawZPas63YVK-72" vertex="1">
          <mxGeometry x="30" width="250" height="561" as="geometry" />
        </mxCell>
        <mxCell id="wyEbM92OFawZPas63YVK-74" style="edgeStyle=orthogonalEdgeStyle;rounded=0;orthogonalLoop=1;jettySize=auto;html=1;" parent="wyEbM92OFawZPas63YVK-72" source="wyEbM92OFawZPas63YVK-76" target="wyEbM92OFawZPas63YVK-77" edge="1">
          <mxGeometry relative="1" as="geometry" />
        </mxCell>
        <mxCell id="wyEbM92OFawZPas63YVK-75" style="edgeStyle=orthogonalEdgeStyle;rounded=0;orthogonalLoop=1;jettySize=auto;html=1;" parent="wyEbM92OFawZPas63YVK-72" source="wyEbM92OFawZPas63YVK-76" target="wyEbM92OFawZPas63YVK-78" edge="1">
          <mxGeometry relative="1" as="geometry" />
        </mxCell>
        <mxCell id="wyEbM92OFawZPas63YVK-76" value="app2-svc" style="aspect=fixed;sketch=0;html=1;dashed=0;whitespace=wrap;verticalLabelPosition=bottom;verticalAlign=top;fillColor=#2875E2;strokeColor=#ffffff;points=[[0.005,0.63,0],[0.1,0.2,0],[0.9,0.2,0],[0.5,0,0],[0.995,0.63,0],[0.72,0.99,0],[0.5,1,0],[0.28,0.99,0]];shape=mxgraph.kubernetes.icon2;kubernetesLabel=1;prIcon=svc;fontStyle=1" parent="wyEbM92OFawZPas63YVK-72" vertex="1">
          <mxGeometry x="130" y="18" width="50" height="48" as="geometry" />
        </mxCell>
        <mxCell id="wyEbM92OFawZPas63YVK-77" value="pod1" style="aspect=fixed;sketch=0;html=1;dashed=0;whitespace=wrap;verticalLabelPosition=bottom;verticalAlign=top;fillColor=#2875E2;strokeColor=#ffffff;points=[[0.005,0.63,0],[0.1,0.2,0],[0.9,0.2,0],[0.5,0,0],[0.995,0.63,0],[0.72,0.99,0],[0.5,1,0],[0.28,0.99,0]];shape=mxgraph.kubernetes.icon2;kubernetesLabel=1;prIcon=pod" parent="wyEbM92OFawZPas63YVK-72" vertex="1">
          <mxGeometry x="90" y="141" width="50" height="48" as="geometry" />
        </mxCell>
        <mxCell id="wyEbM92OFawZPas63YVK-78" value="pod2" style="aspect=fixed;sketch=0;html=1;dashed=0;whitespace=wrap;verticalLabelPosition=bottom;verticalAlign=top;fillColor=#2875E2;strokeColor=#ffffff;points=[[0.005,0.63,0],[0.1,0.2,0],[0.9,0.2,0],[0.5,0,0],[0.995,0.63,0],[0.72,0.99,0],[0.5,1,0],[0.28,0.99,0]];shape=mxgraph.kubernetes.icon2;kubernetesLabel=1;prIcon=pod" parent="wyEbM92OFawZPas63YVK-72" vertex="1">
          <mxGeometry x="170" y="141" width="50" height="48" as="geometry" />
        </mxCell>
        <mxCell id="wyEbM92OFawZPas63YVK-79" style="edgeStyle=orthogonalEdgeStyle;rounded=0;orthogonalLoop=1;jettySize=auto;html=1;" parent="wyEbM92OFawZPas63YVK-72" source="wyEbM92OFawZPas63YVK-80" target="wyEbM92OFawZPas63YVK-78" edge="1">
          <mxGeometry relative="1" as="geometry">
            <Array as="points">
              <mxPoint x="155" y="250" />
              <mxPoint x="195" y="250" />
            </Array>
          </mxGeometry>
        </mxCell>
        <mxCell id="wyEbM92OFawZPas63YVK-80" value="" style="aspect=fixed;sketch=0;html=1;dashed=0;whitespace=wrap;verticalLabelPosition=bottom;verticalAlign=top;fillColor=#2875E2;strokeColor=#ffffff;points=[[0.005,0.63,0],[0.1,0.2,0],[0.9,0.2,0],[0.5,0,0],[0.995,0.63,0],[0.72,0.99,0],[0.5,1,0],[0.28,0.99,0]];shape=mxgraph.kubernetes.icon2;kubernetesLabel=1;prIcon=rs" parent="wyEbM92OFawZPas63YVK-72" vertex="1">
          <mxGeometry x="130" y="274" width="50" height="48" as="geometry" />
        </mxCell>
        <mxCell id="wyEbM92OFawZPas63YVK-81" value="deploy" style="aspect=fixed;sketch=0;html=1;dashed=0;whitespace=wrap;verticalLabelPosition=bottom;verticalAlign=top;fillColor=#2875E2;strokeColor=#ffffff;points=[[0.005,0.63,0],[0.1,0.2,0],[0.9,0.2,0],[0.5,0,0],[0.995,0.63,0],[0.72,0.99,0],[0.5,1,0],[0.28,0.99,0]];shape=mxgraph.kubernetes.icon2;kubernetesLabel=1;prIcon=deploy" parent="wyEbM92OFawZPas63YVK-72" vertex="1">
          <mxGeometry x="130" y="364" width="50" height="48" as="geometry" />
        </mxCell>
        <mxCell id="wyEbM92OFawZPas63YVK-82" style="edgeStyle=orthogonalEdgeStyle;rounded=0;orthogonalLoop=1;jettySize=auto;html=1;entryX=0.5;entryY=1;entryDx=0;entryDy=0;entryPerimeter=0;" parent="wyEbM92OFawZPas63YVK-72" source="wyEbM92OFawZPas63YVK-81" target="wyEbM92OFawZPas63YVK-80" edge="1">
          <mxGeometry relative="1" as="geometry" />
        </mxCell>
        <mxCell id="wyEbM92OFawZPas63YVK-83" style="edgeStyle=orthogonalEdgeStyle;rounded=0;orthogonalLoop=1;jettySize=auto;html=1;entryX=0.5;entryY=1;entryDx=0;entryDy=0;entryPerimeter=0;" parent="wyEbM92OFawZPas63YVK-72" source="wyEbM92OFawZPas63YVK-80" target="wyEbM92OFawZPas63YVK-77" edge="1">
          <mxGeometry relative="1" as="geometry">
            <Array as="points">
              <mxPoint x="155" y="250" />
              <mxPoint x="115" y="250" />
            </Array>
          </mxGeometry>
        </mxCell>
        <mxCell id="wyEbM92OFawZPas63YVK-84" value="hpa" style="aspect=fixed;sketch=0;html=1;dashed=0;whitespace=wrap;verticalLabelPosition=bottom;verticalAlign=top;fillColor=#2875E2;strokeColor=#ffffff;points=[[0.005,0.63,0],[0.1,0.2,0],[0.9,0.2,0],[0.5,0,0],[0.995,0.63,0],[0.72,0.99,0],[0.5,1,0],[0.28,0.99,0]];shape=mxgraph.kubernetes.icon2;kubernetesLabel=1;prIcon=hpa" parent="wyEbM92OFawZPas63YVK-72" vertex="1">
          <mxGeometry x="130" y="461" width="50" height="48" as="geometry" />
        </mxCell>
        <mxCell id="wyEbM92OFawZPas63YVK-85" style="edgeStyle=orthogonalEdgeStyle;rounded=0;orthogonalLoop=1;jettySize=auto;html=1;entryX=0.5;entryY=1;entryDx=0;entryDy=0;entryPerimeter=0;" parent="wyEbM92OFawZPas63YVK-72" source="wyEbM92OFawZPas63YVK-84" target="wyEbM92OFawZPas63YVK-81" edge="1">
          <mxGeometry relative="1" as="geometry" />
        </mxCell>
        <mxCell id="wyEbM92OFawZPas63YVK-86" value="" style="aspect=fixed;sketch=0;html=1;dashed=0;whitespace=wrap;verticalLabelPosition=bottom;verticalAlign=top;fillColor=#2875E2;strokeColor=#ffffff;points=[[0.005,0.63,0],[0.1,0.2,0],[0.9,0.2,0],[0.5,0,0],[0.995,0.63,0],[0.72,0.99,0],[0.5,1,0],[0.28,0.99,0]];shape=mxgraph.kubernetes.icon2;kubernetesLabel=1;prIcon=netpol" parent="wyEbM92OFawZPas63YVK-72" vertex="1">
          <mxGeometry x="255" y="210" width="50" height="48" as="geometry" />
        </mxCell>
        <mxCell id="wyEbM92OFawZPas63YVK-87" value="" style="aspect=fixed;sketch=0;html=1;dashed=0;whitespace=wrap;verticalLabelPosition=bottom;verticalAlign=top;fillColor=#2875E2;strokeColor=#ffffff;points=[[0.005,0.63,0],[0.1,0.2,0],[0.9,0.2,0],[0.5,0,0],[0.995,0.63,0],[0.72,0.99,0],[0.5,1,0],[0.28,0.99,0]];shape=mxgraph.kubernetes.icon2;kubernetesLabel=1;prIcon=limits" parent="wyEbM92OFawZPas63YVK-72" vertex="1">
          <mxGeometry y="390" width="50" height="48" as="geometry" />
        </mxCell>
        <mxCell id="wyEbM92OFawZPas63YVK-88" value="" style="aspect=fixed;sketch=0;html=1;dashed=0;whitespace=wrap;verticalLabelPosition=bottom;verticalAlign=top;fillColor=#2875E2;strokeColor=#ffffff;points=[[0.005,0.63,0],[0.1,0.2,0],[0.9,0.2,0],[0.5,0,0],[0.995,0.63,0],[0.72,0.99,0],[0.5,1,0],[0.28,0.99,0]];shape=mxgraph.kubernetes.icon2;kubernetesLabel=1;prIcon=quota" parent="wyEbM92OFawZPas63YVK-72" vertex="1">
          <mxGeometry y="460" width="50" height="48" as="geometry" />
        </mxCell>
        <mxCell id="wyEbM92OFawZPas63YVK-89" value="ns2" style="aspect=fixed;sketch=0;html=1;dashed=0;whitespace=wrap;verticalLabelPosition=bottom;verticalAlign=top;fillColor=#2875E2;strokeColor=#ffffff;points=[[0.005,0.63,0],[0.1,0.2,0],[0.9,0.2,0],[0.5,0,0],[0.995,0.63,0],[0.72,0.99,0],[0.5,1,0],[0.28,0.99,0]];shape=mxgraph.kubernetes.icon2;kubernetesLabel=1;prIcon=ns" parent="wyEbM92OFawZPas63YVK-72" vertex="1">
          <mxGeometry x="10" y="10" width="50" height="48" as="geometry" />
        </mxCell>
        <mxCell id="hJ8XfWCP7vXrUUp78s-e-11" value="" style="edgeStyle=orthogonalEdgeStyle;rounded=0;orthogonalLoop=1;jettySize=auto;html=1;entryX=0;entryY=0.5;entryDx=0;entryDy=0;" parent="1" source="uH2XNrUpkTFlzk_03d7L-2" target="hJ8XfWCP7vXrUUp78s-e-10" edge="1">
          <mxGeometry relative="1" as="geometry">
            <mxPoint x="305" y="75" as="sourcePoint" />
            <mxPoint x="430" y="75" as="targetPoint" />
          </mxGeometry>
        </mxCell>
        <mxCell id="hJ8XfWCP7vXrUUp78s-e-10" value="" style="outlineConnect=0;dashed=0;verticalLabelPosition=bottom;verticalAlign=top;align=center;html=1;shape=mxgraph.aws3.ssl_padlock;fillColor=#D2D3D3;gradientColor=none;" parent="1" vertex="1">
          <mxGeometry x="355" y="60" width="24.23" height="30" as="geometry" />
        </mxCell>
        <mxCell id="hJ8XfWCP7vXrUUp78s-e-12" value="" style="outlineConnect=0;dashed=0;verticalLabelPosition=bottom;verticalAlign=top;align=center;html=1;shape=mxgraph.aws3.ssl_padlock;fillColor=#D2D3D3;gradientColor=none;" parent="1" vertex="1">
          <mxGeometry x="200" y="60" width="24.23" height="30" as="geometry" />
        </mxCell>
        <mxCell id="hJ8XfWCP7vXrUUp78s-e-14" value="" style="edgeStyle=orthogonalEdgeStyle;rounded=0;orthogonalLoop=1;jettySize=auto;html=1;" parent="1" source="uH2XNrUpkTFlzk_03d7L-7" target="hJ8XfWCP7vXrUUp78s-e-13" edge="1">
          <mxGeometry relative="1" as="geometry">
            <mxPoint x="490" y="75" as="sourcePoint" />
            <mxPoint x="590" y="75" as="targetPoint" />
          </mxGeometry>
        </mxCell>
        <mxCell id="hJ8XfWCP7vXrUUp78s-e-13" value="" style="outlineConnect=0;dashed=0;verticalLabelPosition=bottom;verticalAlign=top;align=center;html=1;shape=mxgraph.aws3.ssl_padlock;fillColor=#D2D3D3;gradientColor=none;" parent="1" vertex="1">
          <mxGeometry x="522.89" y="60" width="24.23" height="30" as="geometry" />
        </mxCell>
        <mxCell id="6eMF-F5gttXPWiPwgopi-1" style="edgeStyle=orthogonalEdgeStyle;rounded=0;orthogonalLoop=1;jettySize=auto;html=1;entryX=0.5;entryY=0;entryDx=0;entryDy=0;entryPerimeter=0;exitX=0;exitY=0.5;exitDx=0;exitDy=0;" parent="1" source="_uvUFfz-k6Og6nQMRo5o-5" target="wyEbM92OFawZPas63YVK-5" edge="1">
          <mxGeometry relative="1" as="geometry">
            <mxPoint x="510" y="274" as="sourcePoint" />
          </mxGeometry>
        </mxCell>
        <mxCell id="3PhvUPeRcVgFczAhHvoa-1" value="" style="image;sketch=0;aspect=fixed;html=1;points=[];align=center;fontSize=12;image=img/lib/mscae/Kubernetes.svg;" parent="1" vertex="1">
          <mxGeometry x="120" y="380" width="50" height="48" as="geometry" />
        </mxCell>
        <mxCell id="3PhvUPeRcVgFczAhHvoa-8" value="" style="group" parent="1" vertex="1" connectable="0">
          <mxGeometry x="470" y="1190" width="255" height="120" as="geometry" />
        </mxCell>
        <mxCell id="3PhvUPeRcVgFczAhHvoa-7" value="" style="rounded=0;whiteSpace=wrap;html=1;fillColor=none;" parent="3PhvUPeRcVgFczAhHvoa-8" vertex="1">
          <mxGeometry width="255" height="120.00000000000009" as="geometry" />
        </mxCell>
        <mxCell id="3PhvUPeRcVgFczAhHvoa-2" value="Prometheus" style="shape=image;verticalLabelPosition=bottom;labelBackgroundColor=default;verticalAlign=top;aspect=fixed;imageAspect=0;image=https://upload.wikimedia.org/wikipedia/commons/thumb/3/38/Prometheus_software_logo.svg/1200px-Prometheus_software_logo.svg.png;" parent="3PhvUPeRcVgFczAhHvoa-8" vertex="1">
          <mxGeometry x="42.84000000000006" y="28.892455858748015" width="48.5585874799358" height="48.154093097913325" as="geometry" />
        </mxCell>
        <mxCell id="3PhvUPeRcVgFczAhHvoa-5" value="Grafana" style="image;aspect=fixed;html=1;points=[];align=center;fontSize=12;image=img/lib/azure2/other/Grafana.svg;" parent="3PhvUPeRcVgFczAhHvoa-8" vertex="1">
          <mxGeometry x="131.52115384615374" y="28.892455858748015" width="65.48956661316213" height="50.850722311396474" as="geometry" />
        </mxCell>
        <mxCell id="3PhvUPeRcVgFczAhHvoa-10" style="edgeStyle=orthogonalEdgeStyle;rounded=0;orthogonalLoop=1;jettySize=auto;html=1;entryX=0.528;entryY=1.001;entryDx=0;entryDy=0;entryPerimeter=0;" parent="1" source="3PhvUPeRcVgFczAhHvoa-7" target="6eMF-F5gttXPWiPwgopi-5" edge="1">
          <mxGeometry relative="1" as="geometry" />
        </mxCell>
        <mxCell id="3PhvUPeRcVgFczAhHvoa-11" value="monitor" style="edgeLabel;html=1;align=center;verticalAlign=middle;resizable=0;points=[];fontStyle=1" parent="3PhvUPeRcVgFczAhHvoa-10" vertex="1" connectable="0">
          <mxGeometry x="-0.1027" relative="1" as="geometry">
            <mxPoint as="offset" />
          </mxGeometry>
        </mxCell>
        <mxCell id="_uvUFfz-k6Og6nQMRo5o-5" value="Nginx&#xa;Ingress Controller" style="shape=image;verticalLabelPosition=bottom;labelBackgroundColor=default;verticalAlign=top;aspect=fixed;imageAspect=0;image=https://docs.nginx.com/images/icons/NGINX-Ingress-Controller-product-icon.svg;fontStyle=1" parent="1" vertex="1">
          <mxGeometry x="508.6" y="250" width="52.8" height="60" as="geometry" />
        </mxCell>
        <mxCell id="_uvUFfz-k6Og6nQMRo5o-7" value="20% traffic" style="text;html=1;align=center;verticalAlign=middle;whiteSpace=wrap;rounded=0;fontStyle=1" parent="1" vertex="1">
          <mxGeometry x="265.23" y="330" width="110" height="30" as="geometry" />
        </mxCell>
        <mxCell id="_uvUFfz-k6Og6nQMRo5o-8" value="80% traffic" style="text;html=1;align=center;verticalAlign=middle;whiteSpace=wrap;rounded=0;fontStyle=1" parent="1" vertex="1">
          <mxGeometry x="635" y="332" width="110" height="30" as="geometry" />
        </mxCell>
        <mxCell id="_uvUFfz-k6Og6nQMRo5o-10" value="SSL Cert" style="image;sketch=0;aspect=fixed;html=1;points=[];align=center;fontSize=12;image=img/lib/mscae/Certificate.svg;fontStyle=1" parent="1" vertex="1">
          <mxGeometry x="465" y="217.58" width="38.6" height="32.42" as="geometry" />
        </mxCell>
        <mxCell id="_uvUFfz-k6Og6nQMRo5o-12" value="" style="edgeStyle=orthogonalEdgeStyle;rounded=0;orthogonalLoop=1;jettySize=auto;html=1;entryX=0.5;entryY=0;entryDx=0;entryDy=0;" parent="1" source="uH2XNrUpkTFlzk_03d7L-4" target="hJ8XfWCP7vXrUUp78s-e-1" edge="1">
          <mxGeometry relative="1" as="geometry">
            <mxPoint x="668" y="75" as="sourcePoint" />
            <mxPoint x="535" y="250" as="targetPoint" />
            <Array as="points">
              <mxPoint x="720" y="75" />
              <mxPoint x="720" y="180" />
              <mxPoint x="623" y="180" />
            </Array>
          </mxGeometry>
        </mxCell>
        <mxCell id="hJ8XfWCP7vXrUUp78s-e-1" value="" style="outlineConnect=0;dashed=0;verticalLabelPosition=bottom;verticalAlign=top;align=center;html=1;shape=mxgraph.aws3.ssl_padlock;fillColor=#D2D3D3;gradientColor=none;" parent="1" vertex="1">
          <mxGeometry x="610.77" y="170" width="24.23" height="30" as="geometry" />
        </mxCell>
        <mxCell id="_uvUFfz-k6Og6nQMRo5o-13" value="SSL Cert" style="image;sketch=0;aspect=fixed;html=1;points=[];align=center;fontSize=12;image=img/lib/mscae/Certificate.svg;fontStyle=1" parent="1" vertex="1">
          <mxGeometry x="680" y="17.580000000000013" width="38.6" height="32.42" as="geometry" />
        </mxCell>
        <mxCell id="_uvUFfz-k6Og6nQMRo5o-16" style="edgeStyle=orthogonalEdgeStyle;rounded=0;orthogonalLoop=1;jettySize=auto;html=1;entryX=0.094;entryY=0;entryDx=0;entryDy=0;entryPerimeter=0;" parent="1" source="_uvUFfz-k6Og6nQMRo5o-15" target="-E65_RxEzlmxlajJ-Pf2-9" edge="1">
          <mxGeometry relative="1" as="geometry" />
        </mxCell>
        <mxCell id="_uvUFfz-k6Og6nQMRo5o-17" value="event notifications" style="edgeLabel;html=1;align=center;verticalAlign=middle;resizable=0;points=[];fontStyle=1" parent="_uvUFfz-k6Og6nQMRo5o-16" vertex="1" connectable="0">
          <mxGeometry x="0.3169" relative="1" as="geometry">
            <mxPoint x="-1" y="9" as="offset" />
          </mxGeometry>
        </mxCell>
        <mxCell id="_uvUFfz-k6Og6nQMRo5o-15" value="Botkube&amp;nbsp;&lt;div&gt;Monitoring&lt;/div&gt;" style="rounded=1;whiteSpace=wrap;html=1;fillColor=#d5e8d4;strokeColor=#82b366;fontStyle=1" parent="1" vertex="1">
          <mxGeometry x="790" y="930" width="90" height="60" as="geometry" />
        </mxCell>
        <mxCell id="_uvUFfz-k6Og6nQMRo5o-18" value="Flaco Rules" style="rounded=1;whiteSpace=wrap;html=1;fontStyle=1;fillColor=#ffe6cc;strokeColor=#d79b00;" parent="1" vertex="1">
          <mxGeometry x="860" y="850" width="90" height="60" as="geometry" />
        </mxCell>
        <mxCell id="_uvUFfz-k6Og6nQMRo5o-25" style="edgeStyle=orthogonalEdgeStyle;rounded=0;orthogonalLoop=1;jettySize=auto;html=1;entryX=0.75;entryY=0;entryDx=0;entryDy=0;" parent="1" source="_uvUFfz-k6Og6nQMRo5o-19" target="-E65_RxEzlmxlajJ-Pf2-9" edge="1">
          <mxGeometry relative="1" as="geometry" />
        </mxCell>
        <mxCell id="_uvUFfz-k6Og6nQMRo5o-19" value="&lt;p style=&quot;margin: 0px; font-variant-numeric: normal; font-variant-east-asian: normal; font-variant-alternates: normal; font-size-adjust: none; font-kerning: auto; font-optical-sizing: auto; font-feature-settings: normal; font-variation-settings: normal; font-variant-position: normal; font-stretch: normal; line-height: normal;&quot; class=&quot;p1&quot;&gt;Aqua Security/&lt;/p&gt;&lt;p style=&quot;margin: 0px; font-variant-numeric: normal; font-variant-east-asian: normal; font-variant-alternates: normal; font-size-adjust: none; font-kerning: auto; font-optical-sizing: auto; font-feature-settings: normal; font-variation-settings: normal; font-variant-position: normal; font-stretch: normal; line-height: normal;&quot; class=&quot;p1&quot;&gt;SysDig Monitoring&lt;/p&gt;" style="rounded=1;whiteSpace=wrap;html=1;fontStyle=1;align=center;fillColor=#dae8fc;strokeColor=#6c8ebf;" parent="1" vertex="1">
          <mxGeometry x="930" y="750" width="90" height="60" as="geometry" />
        </mxCell>
        <mxCell id="_uvUFfz-k6Og6nQMRo5o-20" style="edgeStyle=orthogonalEdgeStyle;rounded=0;orthogonalLoop=1;jettySize=auto;html=1;entryX=0.5;entryY=0;entryDx=0;entryDy=0;" parent="1" source="_uvUFfz-k6Og6nQMRo5o-18" target="-E65_RxEzlmxlajJ-Pf2-9" edge="1">
          <mxGeometry relative="1" as="geometry">
            <mxPoint x="930" y="1130" as="targetPoint" />
          </mxGeometry>
        </mxCell>
        <mxCell id="_uvUFfz-k6Og6nQMRo5o-22" value="Flaco Rules" style="rounded=1;whiteSpace=wrap;html=1;fontStyle=1;fillColor=#ffe6cc;strokeColor=#d79b00;" parent="1" vertex="1">
          <mxGeometry x="800" y="720" width="90" height="60" as="geometry" />
        </mxCell>
        <mxCell id="_uvUFfz-k6Og6nQMRo5o-23" value="user" style="aspect=fixed;sketch=0;html=1;dashed=0;whitespace=wrap;verticalLabelPosition=bottom;verticalAlign=top;fillColor=#2875E2;strokeColor=#ffffff;points=[[0.005,0.63,0],[0.1,0.2,0],[0.9,0.2,0],[0.5,0,0],[0.995,0.63,0],[0.72,0.99,0],[0.5,1,0],[0.28,0.99,0]];shape=mxgraph.kubernetes.icon2;kubernetesLabel=1;prIcon=user" parent="1" vertex="1">
          <mxGeometry x="820" y="400" width="50" height="48" as="geometry" />
        </mxCell>
        <mxCell id="_uvUFfz-k6Og6nQMRo5o-24" value="role" style="aspect=fixed;sketch=0;html=1;dashed=0;whitespace=wrap;verticalLabelPosition=bottom;verticalAlign=top;fillColor=#2875E2;strokeColor=#ffffff;points=[[0.005,0.63,0],[0.1,0.2,0],[0.9,0.2,0],[0.5,0,0],[0.995,0.63,0],[0.72,0.99,0],[0.5,1,0],[0.28,0.99,0]];shape=mxgraph.kubernetes.icon2;kubernetesLabel=1;prIcon=role" parent="1" vertex="1">
          <mxGeometry x="820" y="480" width="50" height="48" as="geometry" />
        </mxCell>
        <mxCell id="_uvUFfz-k6Og6nQMRo5o-26" value="" style="aspect=fixed;sketch=0;html=1;dashed=0;whitespace=wrap;verticalLabelPosition=bottom;verticalAlign=top;fillColor=#2875E2;strokeColor=#ffffff;points=[[0.005,0.63,0],[0.1,0.2,0],[0.9,0.2,0],[0.5,0,0],[0.995,0.63,0],[0.72,0.99,0],[0.5,1,0],[0.28,0.99,0]];shape=mxgraph.kubernetes.icon2;kubernetesLabel=1;prIcon=sa" parent="1" vertex="1">
          <mxGeometry x="890" y="400" width="50" height="48" as="geometry" />
        </mxCell>
        <mxCell id="_uvUFfz-k6Og6nQMRo5o-27" value="rolebinding" style="aspect=fixed;sketch=0;html=1;dashed=0;whitespace=wrap;verticalLabelPosition=bottom;verticalAlign=top;fillColor=#2875E2;strokeColor=#ffffff;points=[[0.005,0.63,0],[0.1,0.2,0],[0.9,0.2,0],[0.5,0,0],[0.995,0.63,0],[0.72,0.99,0],[0.5,1,0],[0.28,0.99,0]];shape=mxgraph.kubernetes.icon2;kubernetesLabel=1;prIcon=rb" parent="1" vertex="1">
          <mxGeometry x="890" y="480" width="50" height="48" as="geometry" />
        </mxCell>
        <mxCell id="_uvUFfz-k6Og6nQMRo5o-28" value="daemonset" style="aspect=fixed;sketch=0;html=1;dashed=0;whitespace=wrap;verticalLabelPosition=bottom;verticalAlign=top;fillColor=#2875E2;strokeColor=#ffffff;points=[[0.005,0.63,0],[0.1,0.2,0],[0.9,0.2,0],[0.5,0,0],[0.995,0.63,0],[0.72,0.99,0],[0.5,1,0],[0.28,0.99,0]];shape=mxgraph.kubernetes.icon2;kubernetesLabel=1;prIcon=ds" parent="1" vertex="1">
          <mxGeometry x="820" y="600" width="50" height="48" as="geometry" />
        </mxCell>
        <mxCell id="_uvUFfz-k6Og6nQMRo5o-33" value="clusterrole" style="aspect=fixed;sketch=0;html=1;dashed=0;whitespace=wrap;verticalLabelPosition=bottom;verticalAlign=top;fillColor=#2875E2;strokeColor=#ffffff;points=[[0.005,0.63,0],[0.1,0.2,0],[0.9,0.2,0],[0.5,0,0],[0.995,0.63,0],[0.72,0.99,0],[0.5,1,0],[0.28,0.99,0]];shape=mxgraph.kubernetes.icon2;kubernetesLabel=1;prIcon=c_role" parent="1" vertex="1">
          <mxGeometry x="950" y="400" width="50" height="48" as="geometry" />
        </mxCell>
        <mxCell id="_uvUFfz-k6Og6nQMRo5o-34" value="cluster&lt;div&gt;rrolebinding&lt;/div&gt;" style="aspect=fixed;sketch=0;html=1;dashed=0;whitespace=wrap;verticalLabelPosition=bottom;verticalAlign=top;fillColor=#2875E2;strokeColor=#ffffff;points=[[0.005,0.63,0],[0.1,0.2,0],[0.9,0.2,0],[0.5,0,0],[0.995,0.63,0],[0.72,0.99,0],[0.5,1,0],[0.28,0.99,0]];shape=mxgraph.kubernetes.icon2;prIcon=rb" parent="1" vertex="1">
          <mxGeometry x="960" y="480" width="50" height="48" as="geometry" />
        </mxCell>
        <mxCell id="_uvUFfz-k6Og6nQMRo5o-35" value="" style="rounded=0;whiteSpace=wrap;html=1;fillColor=none;" parent="1" vertex="1">
          <mxGeometry x="810" y="380" width="210" height="190" as="geometry" />
        </mxCell>
        <mxCell id="_uvUFfz-k6Og6nQMRo5o-36" value="RBAC" style="text;html=1;align=center;verticalAlign=middle;whiteSpace=wrap;rounded=0;fontStyle=1" parent="1" vertex="1">
          <mxGeometry x="969" y="377" width="60" height="30" as="geometry" />
        </mxCell>
        <mxCell id="dlfTBMziWyScQio23Eez-7" style="edgeStyle=orthogonalEdgeStyle;rounded=0;orthogonalLoop=1;jettySize=auto;html=1;entryX=0.25;entryY=1;entryDx=0;entryDy=0;" edge="1" parent="1" source="dlfTBMziWyScQio23Eez-1" target="6eMF-F5gttXPWiPwgopi-5">
          <mxGeometry relative="1" as="geometry" />
        </mxCell>
        <mxCell id="dlfTBMziWyScQio23Eez-1" value="" style="shape=image;verticalLabelPosition=bottom;labelBackgroundColor=default;verticalAlign=top;aspect=fixed;imageAspect=0;image=https://aquasecurity.github.io/kube-bench/v0.6.15/images/kube-bench.jpg;" vertex="1" parent="1">
          <mxGeometry x="255" y="1190" width="175" height="47.6" as="geometry" />
        </mxCell>
        <mxCell id="dlfTBMziWyScQio23Eez-3" value="" style="group" vertex="1" connectable="0" parent="1">
          <mxGeometry x="820" y="1190" width="170" height="120" as="geometry" />
        </mxCell>
        <mxCell id="-E65_RxEzlmxlajJ-Pf2-9" value="" style="rounded=0;whiteSpace=wrap;html=1;fillColor=none;" parent="dlfTBMziWyScQio23Eez-3" vertex="1">
          <mxGeometry width="170" height="120" as="geometry" />
        </mxCell>
        <mxCell id="-E65_RxEzlmxlajJ-Pf2-2" value="Teams&#xa;" style="shape=image;verticalLabelPosition=bottom;labelBackgroundColor=default;verticalAlign=top;aspect=fixed;imageAspect=0;image=https://mailmeteor.com/logos/assets/PNG/Microsoft_Office_Teams_Logo_512px.png;" parent="dlfTBMziWyScQio23Eez-3" vertex="1">
          <mxGeometry x="20" y="37.5" width="53.67" height="50" as="geometry" />
        </mxCell>
        <mxCell id="-E65_RxEzlmxlajJ-Pf2-4" value="Slack" style="shape=image;verticalLabelPosition=bottom;labelBackgroundColor=default;verticalAlign=top;aspect=fixed;imageAspect=0;image=https://cdn.freebiesupply.com/logos/thumbs/2x/slack-logo-thumb.png;" parent="dlfTBMziWyScQio23Eez-3" vertex="1">
          <mxGeometry x="100" y="37.5" width="60" height="45" as="geometry" />
        </mxCell>
        <mxCell id="dlfTBMziWyScQio23Eez-8" value="Kubesec" style="shape=image;verticalLabelPosition=bottom;labelBackgroundColor=default;verticalAlign=top;aspect=fixed;imageAspect=0;image=https://casual-hosting.s3.amazonaws.com/kubesec-logo.png;fontStyle=1" vertex="1" parent="1">
          <mxGeometry x="170" y="1171" width="72.38" height="70" as="geometry" />
        </mxCell>
        <mxCell id="dlfTBMziWyScQio23Eez-9" style="edgeStyle=orthogonalEdgeStyle;rounded=0;orthogonalLoop=1;jettySize=auto;html=1;entryX=0.103;entryY=1;entryDx=0;entryDy=0;entryPerimeter=0;" edge="1" parent="1" source="dlfTBMziWyScQio23Eez-8" target="6eMF-F5gttXPWiPwgopi-5">
          <mxGeometry relative="1" as="geometry" />
        </mxCell>
      </root>
    </mxGraphModel>
  </diagram>
  <diagram id="ar_RpcKK5ryOkLGncXI5" name="Page-5">
    <mxGraphModel dx="1244" dy="894" grid="1" gridSize="10" guides="1" tooltips="1" connect="1" arrows="1" fold="1" page="1" pageScale="1" pageWidth="1169" pageHeight="827" math="0" shadow="0">
      <root>
        <mxCell id="0" />
        <mxCell id="1" parent="0" />
        <mxCell id="5EvdFi2KmkRD2Vt9G3wC-1" value="Static Code Analysis" style="shape=image;verticalLabelPosition=bottom;labelBackgroundColor=default;verticalAlign=top;aspect=fixed;imageAspect=0;image=https://semgrep.dev/images/SemgrepLogoWithTextWithMargin.svg;" parent="1" vertex="1">
          <mxGeometry x="90" y="110" width="243.48" height="70" as="geometry" />
        </mxCell>
      </root>
    </mxGraphModel>
  </diagram>
</mxfile>
